G75*
%MOIN*%
%OFA0B0*%
%FSLAX25Y25*%
%IPPOS*%
%LPD*%
%AMOC8*
5,1,8,0,0,1.08239X$1,22.5*
%
%ADD10C,0.04343*%
%ADD11C,0.03556*%
%ADD12R,0.40000X0.12500*%
%ADD13R,0.05131X0.04737*%
%ADD14R,0.05524X0.03162*%
%ADD15R,0.05524X0.08674*%
%ADD16R,0.03162X0.06115*%
%ADD17R,0.04737X0.05131*%
%ADD18R,0.03300X0.05800*%
%ADD19C,0.00500*%
%ADD20C,0.08200*%
%ADD21C,0.03300*%
%ADD22R,0.04331X0.01575*%
%ADD23C,0.01421*%
%ADD24R,0.05800X0.20800*%
D10*
X0133333Y0050000D03*
X0223333Y0050000D03*
X0198333Y0125000D03*
X0158333Y0125000D03*
D11*
X0158333Y0170000D03*
X0198333Y0170000D03*
D12*
X0178333Y0111250D03*
D13*
X0159180Y0097500D03*
X0152487Y0097500D03*
X0197487Y0097500D03*
X0204180Y0097500D03*
X0216487Y0070000D03*
X0223180Y0070000D03*
X0140180Y0055000D03*
X0133487Y0055000D03*
D14*
X0152310Y0075000D03*
X0152310Y0080000D03*
X0152310Y0085000D03*
X0152310Y0090000D03*
X0174357Y0090000D03*
X0174357Y0085000D03*
X0174357Y0080000D03*
X0174357Y0075000D03*
D15*
X0167310Y0050531D03*
X0189357Y0050531D03*
X0189357Y0139469D03*
X0167310Y0139469D03*
D16*
X0172428Y0125000D03*
X0176365Y0125000D03*
X0180302Y0125000D03*
X0184239Y0125000D03*
X0184239Y0065000D03*
X0180302Y0065000D03*
X0176365Y0065000D03*
X0172428Y0065000D03*
D17*
X0158333Y0131654D03*
X0158333Y0138346D03*
X0198333Y0138346D03*
X0198333Y0131654D03*
D18*
X0182333Y0097500D03*
X0178333Y0097500D03*
X0174333Y0097500D03*
D19*
X0175583Y0097344D02*
X0181083Y0097344D01*
X0181083Y0097000D02*
X0175583Y0097000D01*
X0175583Y0098000D01*
X0181083Y0098000D01*
X0181083Y0097000D01*
X0181083Y0097842D02*
X0175583Y0097842D01*
D20*
X0158333Y0050000D03*
X0148333Y0050000D03*
X0198333Y0050000D03*
X0208333Y0050000D03*
D21*
X0214333Y0065000D03*
X0133333Y0140000D03*
D22*
X0187762Y0083937D03*
X0187762Y0081969D03*
X0187762Y0080000D03*
X0187762Y0078031D03*
X0187762Y0076063D03*
X0203904Y0076063D03*
X0203904Y0078031D03*
X0203904Y0080000D03*
X0203904Y0081969D03*
X0203904Y0083937D03*
D23*
X0138628Y0068158D02*
X0138628Y0064842D01*
X0138628Y0068158D02*
X0141944Y0068158D01*
X0141944Y0064842D01*
X0138628Y0064842D01*
X0138628Y0066262D02*
X0141944Y0066262D01*
X0141944Y0067682D02*
X0138628Y0067682D01*
X0131723Y0068158D02*
X0131723Y0064842D01*
X0131723Y0068158D02*
X0135039Y0068158D01*
X0135039Y0064842D01*
X0131723Y0064842D01*
X0131723Y0066262D02*
X0135039Y0066262D01*
X0135039Y0067682D02*
X0131723Y0067682D01*
D24*
X0133333Y0088000D03*
X0143333Y0088000D03*
X0213333Y0088000D03*
X0223333Y0088000D03*
M02*
