G75*
%MOIN*%
%OFA0B0*%
%FSLAX25Y25*%
%IPPOS*%
%LPD*%
%AMOC8*
5,1,8,0,0,1.08239X$1,22.5*
%
%ADD10C,0.00800*%
%ADD11C,0.00000*%
D10*
X0128333Y0050000D02*
X0128333Y0140000D01*
X0128335Y0140140D01*
X0128341Y0140280D01*
X0128351Y0140420D01*
X0128364Y0140560D01*
X0128382Y0140699D01*
X0128404Y0140838D01*
X0128429Y0140975D01*
X0128458Y0141113D01*
X0128491Y0141249D01*
X0128528Y0141384D01*
X0128569Y0141518D01*
X0128614Y0141651D01*
X0128662Y0141783D01*
X0128714Y0141913D01*
X0128769Y0142042D01*
X0128828Y0142169D01*
X0128891Y0142295D01*
X0128957Y0142419D01*
X0129026Y0142540D01*
X0129099Y0142660D01*
X0129176Y0142778D01*
X0129255Y0142893D01*
X0129338Y0143007D01*
X0129424Y0143117D01*
X0129513Y0143226D01*
X0129605Y0143332D01*
X0129700Y0143435D01*
X0129797Y0143536D01*
X0129898Y0143633D01*
X0130001Y0143728D01*
X0130107Y0143820D01*
X0130216Y0143909D01*
X0130326Y0143995D01*
X0130440Y0144078D01*
X0130555Y0144157D01*
X0130673Y0144234D01*
X0130793Y0144307D01*
X0130914Y0144376D01*
X0131038Y0144442D01*
X0131164Y0144505D01*
X0131291Y0144564D01*
X0131420Y0144619D01*
X0131550Y0144671D01*
X0131682Y0144719D01*
X0131815Y0144764D01*
X0131949Y0144805D01*
X0132084Y0144842D01*
X0132220Y0144875D01*
X0132358Y0144904D01*
X0132495Y0144929D01*
X0132634Y0144951D01*
X0132773Y0144969D01*
X0132913Y0144982D01*
X0133053Y0144992D01*
X0133193Y0144998D01*
X0133333Y0145000D01*
X0223333Y0145000D01*
X0223473Y0144998D01*
X0223613Y0144992D01*
X0223753Y0144982D01*
X0223893Y0144969D01*
X0224032Y0144951D01*
X0224171Y0144929D01*
X0224308Y0144904D01*
X0224446Y0144875D01*
X0224582Y0144842D01*
X0224717Y0144805D01*
X0224851Y0144764D01*
X0224984Y0144719D01*
X0225116Y0144671D01*
X0225246Y0144619D01*
X0225375Y0144564D01*
X0225502Y0144505D01*
X0225628Y0144442D01*
X0225752Y0144376D01*
X0225873Y0144307D01*
X0225993Y0144234D01*
X0226111Y0144157D01*
X0226226Y0144078D01*
X0226340Y0143995D01*
X0226450Y0143909D01*
X0226559Y0143820D01*
X0226665Y0143728D01*
X0226768Y0143633D01*
X0226869Y0143536D01*
X0226966Y0143435D01*
X0227061Y0143332D01*
X0227153Y0143226D01*
X0227242Y0143117D01*
X0227328Y0143007D01*
X0227411Y0142893D01*
X0227490Y0142778D01*
X0227567Y0142660D01*
X0227640Y0142540D01*
X0227709Y0142419D01*
X0227775Y0142295D01*
X0227838Y0142169D01*
X0227897Y0142042D01*
X0227952Y0141913D01*
X0228004Y0141783D01*
X0228052Y0141651D01*
X0228097Y0141518D01*
X0228138Y0141384D01*
X0228175Y0141249D01*
X0228208Y0141113D01*
X0228237Y0140975D01*
X0228262Y0140838D01*
X0228284Y0140699D01*
X0228302Y0140560D01*
X0228315Y0140420D01*
X0228325Y0140280D01*
X0228331Y0140140D01*
X0228333Y0140000D01*
X0228333Y0050000D01*
X0228331Y0049860D01*
X0228325Y0049720D01*
X0228315Y0049580D01*
X0228302Y0049440D01*
X0228284Y0049301D01*
X0228262Y0049162D01*
X0228237Y0049025D01*
X0228208Y0048887D01*
X0228175Y0048751D01*
X0228138Y0048616D01*
X0228097Y0048482D01*
X0228052Y0048349D01*
X0228004Y0048217D01*
X0227952Y0048087D01*
X0227897Y0047958D01*
X0227838Y0047831D01*
X0227775Y0047705D01*
X0227709Y0047581D01*
X0227640Y0047460D01*
X0227567Y0047340D01*
X0227490Y0047222D01*
X0227411Y0047107D01*
X0227328Y0046993D01*
X0227242Y0046883D01*
X0227153Y0046774D01*
X0227061Y0046668D01*
X0226966Y0046565D01*
X0226869Y0046464D01*
X0226768Y0046367D01*
X0226665Y0046272D01*
X0226559Y0046180D01*
X0226450Y0046091D01*
X0226340Y0046005D01*
X0226226Y0045922D01*
X0226111Y0045843D01*
X0225993Y0045766D01*
X0225873Y0045693D01*
X0225752Y0045624D01*
X0225628Y0045558D01*
X0225502Y0045495D01*
X0225375Y0045436D01*
X0225246Y0045381D01*
X0225116Y0045329D01*
X0224984Y0045281D01*
X0224851Y0045236D01*
X0224717Y0045195D01*
X0224582Y0045158D01*
X0224446Y0045125D01*
X0224308Y0045096D01*
X0224171Y0045071D01*
X0224032Y0045049D01*
X0223893Y0045031D01*
X0223753Y0045018D01*
X0223613Y0045008D01*
X0223473Y0045002D01*
X0223333Y0045000D01*
X0133333Y0045000D01*
X0133193Y0045002D01*
X0133053Y0045008D01*
X0132913Y0045018D01*
X0132773Y0045031D01*
X0132634Y0045049D01*
X0132495Y0045071D01*
X0132358Y0045096D01*
X0132220Y0045125D01*
X0132084Y0045158D01*
X0131949Y0045195D01*
X0131815Y0045236D01*
X0131682Y0045281D01*
X0131550Y0045329D01*
X0131420Y0045381D01*
X0131291Y0045436D01*
X0131164Y0045495D01*
X0131038Y0045558D01*
X0130914Y0045624D01*
X0130793Y0045693D01*
X0130673Y0045766D01*
X0130555Y0045843D01*
X0130440Y0045922D01*
X0130326Y0046005D01*
X0130216Y0046091D01*
X0130107Y0046180D01*
X0130001Y0046272D01*
X0129898Y0046367D01*
X0129797Y0046464D01*
X0129700Y0046565D01*
X0129605Y0046668D01*
X0129513Y0046774D01*
X0129424Y0046883D01*
X0129338Y0046993D01*
X0129255Y0047107D01*
X0129176Y0047222D01*
X0129099Y0047340D01*
X0129026Y0047460D01*
X0128957Y0047581D01*
X0128891Y0047705D01*
X0128828Y0047831D01*
X0128769Y0047958D01*
X0128714Y0048087D01*
X0128662Y0048217D01*
X0128614Y0048349D01*
X0128569Y0048482D01*
X0128528Y0048616D01*
X0128491Y0048751D01*
X0128458Y0048887D01*
X0128429Y0049025D01*
X0128404Y0049162D01*
X0128382Y0049301D01*
X0128364Y0049440D01*
X0128351Y0049580D01*
X0128341Y0049720D01*
X0128335Y0049860D01*
X0128333Y0050000D01*
X0128333Y0155000D02*
X0228333Y0155000D01*
X0228333Y0185000D01*
X0228331Y0185140D01*
X0228325Y0185280D01*
X0228315Y0185420D01*
X0228302Y0185560D01*
X0228284Y0185699D01*
X0228262Y0185838D01*
X0228237Y0185975D01*
X0228208Y0186113D01*
X0228175Y0186249D01*
X0228138Y0186384D01*
X0228097Y0186518D01*
X0228052Y0186651D01*
X0228004Y0186783D01*
X0227952Y0186913D01*
X0227897Y0187042D01*
X0227838Y0187169D01*
X0227775Y0187295D01*
X0227709Y0187419D01*
X0227640Y0187540D01*
X0227567Y0187660D01*
X0227490Y0187778D01*
X0227411Y0187893D01*
X0227328Y0188007D01*
X0227242Y0188117D01*
X0227153Y0188226D01*
X0227061Y0188332D01*
X0226966Y0188435D01*
X0226869Y0188536D01*
X0226768Y0188633D01*
X0226665Y0188728D01*
X0226559Y0188820D01*
X0226450Y0188909D01*
X0226340Y0188995D01*
X0226226Y0189078D01*
X0226111Y0189157D01*
X0225993Y0189234D01*
X0225873Y0189307D01*
X0225752Y0189376D01*
X0225628Y0189442D01*
X0225502Y0189505D01*
X0225375Y0189564D01*
X0225246Y0189619D01*
X0225116Y0189671D01*
X0224984Y0189719D01*
X0224851Y0189764D01*
X0224717Y0189805D01*
X0224582Y0189842D01*
X0224446Y0189875D01*
X0224308Y0189904D01*
X0224171Y0189929D01*
X0224032Y0189951D01*
X0223893Y0189969D01*
X0223753Y0189982D01*
X0223613Y0189992D01*
X0223473Y0189998D01*
X0223333Y0190000D01*
X0193333Y0190000D01*
X0193333Y0167500D01*
X0163333Y0167500D01*
X0163333Y0190000D01*
X0133333Y0190000D01*
X0133193Y0189998D01*
X0133053Y0189992D01*
X0132913Y0189982D01*
X0132773Y0189969D01*
X0132634Y0189951D01*
X0132495Y0189929D01*
X0132358Y0189904D01*
X0132220Y0189875D01*
X0132084Y0189842D01*
X0131949Y0189805D01*
X0131815Y0189764D01*
X0131682Y0189719D01*
X0131550Y0189671D01*
X0131420Y0189619D01*
X0131291Y0189564D01*
X0131164Y0189505D01*
X0131038Y0189442D01*
X0130914Y0189376D01*
X0130793Y0189307D01*
X0130673Y0189234D01*
X0130555Y0189157D01*
X0130440Y0189078D01*
X0130326Y0188995D01*
X0130216Y0188909D01*
X0130107Y0188820D01*
X0130001Y0188728D01*
X0129898Y0188633D01*
X0129797Y0188536D01*
X0129700Y0188435D01*
X0129605Y0188332D01*
X0129513Y0188226D01*
X0129424Y0188117D01*
X0129338Y0188007D01*
X0129255Y0187893D01*
X0129176Y0187778D01*
X0129099Y0187660D01*
X0129026Y0187540D01*
X0128957Y0187419D01*
X0128891Y0187295D01*
X0128828Y0187169D01*
X0128769Y0187042D01*
X0128714Y0186913D01*
X0128662Y0186783D01*
X0128614Y0186651D01*
X0128569Y0186518D01*
X0128528Y0186384D01*
X0128491Y0186249D01*
X0128458Y0186113D01*
X0128429Y0185975D01*
X0128404Y0185838D01*
X0128382Y0185699D01*
X0128364Y0185560D01*
X0128351Y0185420D01*
X0128341Y0185280D01*
X0128335Y0185140D01*
X0128333Y0185000D01*
X0128333Y0155000D01*
D11*
X0156955Y0170000D02*
X0156957Y0170074D01*
X0156963Y0170148D01*
X0156973Y0170221D01*
X0156987Y0170294D01*
X0157004Y0170366D01*
X0157026Y0170436D01*
X0157051Y0170506D01*
X0157080Y0170574D01*
X0157113Y0170640D01*
X0157149Y0170705D01*
X0157189Y0170767D01*
X0157231Y0170828D01*
X0157277Y0170886D01*
X0157326Y0170941D01*
X0157378Y0170994D01*
X0157433Y0171044D01*
X0157490Y0171090D01*
X0157550Y0171134D01*
X0157612Y0171174D01*
X0157676Y0171211D01*
X0157742Y0171245D01*
X0157810Y0171275D01*
X0157879Y0171301D01*
X0157950Y0171324D01*
X0158021Y0171342D01*
X0158094Y0171357D01*
X0158167Y0171368D01*
X0158241Y0171375D01*
X0158315Y0171378D01*
X0158388Y0171377D01*
X0158462Y0171372D01*
X0158536Y0171363D01*
X0158609Y0171350D01*
X0158681Y0171333D01*
X0158752Y0171313D01*
X0158822Y0171288D01*
X0158890Y0171260D01*
X0158957Y0171229D01*
X0159022Y0171193D01*
X0159085Y0171155D01*
X0159146Y0171113D01*
X0159205Y0171067D01*
X0159261Y0171019D01*
X0159314Y0170968D01*
X0159364Y0170914D01*
X0159412Y0170857D01*
X0159456Y0170798D01*
X0159498Y0170736D01*
X0159536Y0170673D01*
X0159570Y0170607D01*
X0159601Y0170540D01*
X0159628Y0170471D01*
X0159651Y0170401D01*
X0159671Y0170330D01*
X0159687Y0170257D01*
X0159699Y0170184D01*
X0159707Y0170111D01*
X0159711Y0170037D01*
X0159711Y0169963D01*
X0159707Y0169889D01*
X0159699Y0169816D01*
X0159687Y0169743D01*
X0159671Y0169670D01*
X0159651Y0169599D01*
X0159628Y0169529D01*
X0159601Y0169460D01*
X0159570Y0169393D01*
X0159536Y0169327D01*
X0159498Y0169264D01*
X0159456Y0169202D01*
X0159412Y0169143D01*
X0159364Y0169086D01*
X0159314Y0169032D01*
X0159261Y0168981D01*
X0159205Y0168933D01*
X0159146Y0168887D01*
X0159085Y0168845D01*
X0159022Y0168807D01*
X0158957Y0168771D01*
X0158890Y0168740D01*
X0158822Y0168712D01*
X0158752Y0168687D01*
X0158681Y0168667D01*
X0158609Y0168650D01*
X0158536Y0168637D01*
X0158462Y0168628D01*
X0158388Y0168623D01*
X0158315Y0168622D01*
X0158241Y0168625D01*
X0158167Y0168632D01*
X0158094Y0168643D01*
X0158021Y0168658D01*
X0157950Y0168676D01*
X0157879Y0168699D01*
X0157810Y0168725D01*
X0157742Y0168755D01*
X0157676Y0168789D01*
X0157612Y0168826D01*
X0157550Y0168866D01*
X0157490Y0168910D01*
X0157433Y0168956D01*
X0157378Y0169006D01*
X0157326Y0169059D01*
X0157277Y0169114D01*
X0157231Y0169172D01*
X0157189Y0169233D01*
X0157149Y0169295D01*
X0157113Y0169360D01*
X0157080Y0169426D01*
X0157051Y0169494D01*
X0157026Y0169564D01*
X0157004Y0169634D01*
X0156987Y0169706D01*
X0156973Y0169779D01*
X0156963Y0169852D01*
X0156957Y0169926D01*
X0156955Y0170000D01*
X0196955Y0170000D02*
X0196957Y0170074D01*
X0196963Y0170148D01*
X0196973Y0170221D01*
X0196987Y0170294D01*
X0197004Y0170366D01*
X0197026Y0170436D01*
X0197051Y0170506D01*
X0197080Y0170574D01*
X0197113Y0170640D01*
X0197149Y0170705D01*
X0197189Y0170767D01*
X0197231Y0170828D01*
X0197277Y0170886D01*
X0197326Y0170941D01*
X0197378Y0170994D01*
X0197433Y0171044D01*
X0197490Y0171090D01*
X0197550Y0171134D01*
X0197612Y0171174D01*
X0197676Y0171211D01*
X0197742Y0171245D01*
X0197810Y0171275D01*
X0197879Y0171301D01*
X0197950Y0171324D01*
X0198021Y0171342D01*
X0198094Y0171357D01*
X0198167Y0171368D01*
X0198241Y0171375D01*
X0198315Y0171378D01*
X0198388Y0171377D01*
X0198462Y0171372D01*
X0198536Y0171363D01*
X0198609Y0171350D01*
X0198681Y0171333D01*
X0198752Y0171313D01*
X0198822Y0171288D01*
X0198890Y0171260D01*
X0198957Y0171229D01*
X0199022Y0171193D01*
X0199085Y0171155D01*
X0199146Y0171113D01*
X0199205Y0171067D01*
X0199261Y0171019D01*
X0199314Y0170968D01*
X0199364Y0170914D01*
X0199412Y0170857D01*
X0199456Y0170798D01*
X0199498Y0170736D01*
X0199536Y0170673D01*
X0199570Y0170607D01*
X0199601Y0170540D01*
X0199628Y0170471D01*
X0199651Y0170401D01*
X0199671Y0170330D01*
X0199687Y0170257D01*
X0199699Y0170184D01*
X0199707Y0170111D01*
X0199711Y0170037D01*
X0199711Y0169963D01*
X0199707Y0169889D01*
X0199699Y0169816D01*
X0199687Y0169743D01*
X0199671Y0169670D01*
X0199651Y0169599D01*
X0199628Y0169529D01*
X0199601Y0169460D01*
X0199570Y0169393D01*
X0199536Y0169327D01*
X0199498Y0169264D01*
X0199456Y0169202D01*
X0199412Y0169143D01*
X0199364Y0169086D01*
X0199314Y0169032D01*
X0199261Y0168981D01*
X0199205Y0168933D01*
X0199146Y0168887D01*
X0199085Y0168845D01*
X0199022Y0168807D01*
X0198957Y0168771D01*
X0198890Y0168740D01*
X0198822Y0168712D01*
X0198752Y0168687D01*
X0198681Y0168667D01*
X0198609Y0168650D01*
X0198536Y0168637D01*
X0198462Y0168628D01*
X0198388Y0168623D01*
X0198315Y0168622D01*
X0198241Y0168625D01*
X0198167Y0168632D01*
X0198094Y0168643D01*
X0198021Y0168658D01*
X0197950Y0168676D01*
X0197879Y0168699D01*
X0197810Y0168725D01*
X0197742Y0168755D01*
X0197676Y0168789D01*
X0197612Y0168826D01*
X0197550Y0168866D01*
X0197490Y0168910D01*
X0197433Y0168956D01*
X0197378Y0169006D01*
X0197326Y0169059D01*
X0197277Y0169114D01*
X0197231Y0169172D01*
X0197189Y0169233D01*
X0197149Y0169295D01*
X0197113Y0169360D01*
X0197080Y0169426D01*
X0197051Y0169494D01*
X0197026Y0169564D01*
X0197004Y0169634D01*
X0196987Y0169706D01*
X0196973Y0169779D01*
X0196963Y0169852D01*
X0196957Y0169926D01*
X0196955Y0170000D01*
X0196561Y0125000D02*
X0196563Y0125084D01*
X0196569Y0125167D01*
X0196579Y0125250D01*
X0196593Y0125333D01*
X0196610Y0125415D01*
X0196632Y0125496D01*
X0196657Y0125575D01*
X0196686Y0125654D01*
X0196719Y0125731D01*
X0196755Y0125806D01*
X0196795Y0125880D01*
X0196838Y0125952D01*
X0196885Y0126021D01*
X0196935Y0126088D01*
X0196988Y0126153D01*
X0197044Y0126215D01*
X0197102Y0126275D01*
X0197164Y0126332D01*
X0197228Y0126385D01*
X0197295Y0126436D01*
X0197364Y0126483D01*
X0197435Y0126528D01*
X0197508Y0126568D01*
X0197583Y0126605D01*
X0197660Y0126639D01*
X0197738Y0126669D01*
X0197817Y0126695D01*
X0197898Y0126718D01*
X0197980Y0126736D01*
X0198062Y0126751D01*
X0198145Y0126762D01*
X0198228Y0126769D01*
X0198312Y0126772D01*
X0198396Y0126771D01*
X0198479Y0126766D01*
X0198563Y0126757D01*
X0198645Y0126744D01*
X0198727Y0126728D01*
X0198808Y0126707D01*
X0198889Y0126683D01*
X0198967Y0126655D01*
X0199045Y0126623D01*
X0199121Y0126587D01*
X0199195Y0126548D01*
X0199267Y0126506D01*
X0199337Y0126460D01*
X0199405Y0126411D01*
X0199470Y0126359D01*
X0199533Y0126304D01*
X0199593Y0126246D01*
X0199651Y0126185D01*
X0199705Y0126121D01*
X0199757Y0126055D01*
X0199805Y0125987D01*
X0199850Y0125916D01*
X0199891Y0125843D01*
X0199930Y0125769D01*
X0199964Y0125693D01*
X0199995Y0125615D01*
X0200022Y0125536D01*
X0200046Y0125455D01*
X0200065Y0125374D01*
X0200081Y0125292D01*
X0200093Y0125209D01*
X0200101Y0125125D01*
X0200105Y0125042D01*
X0200105Y0124958D01*
X0200101Y0124875D01*
X0200093Y0124791D01*
X0200081Y0124708D01*
X0200065Y0124626D01*
X0200046Y0124545D01*
X0200022Y0124464D01*
X0199995Y0124385D01*
X0199964Y0124307D01*
X0199930Y0124231D01*
X0199891Y0124157D01*
X0199850Y0124084D01*
X0199805Y0124013D01*
X0199757Y0123945D01*
X0199705Y0123879D01*
X0199651Y0123815D01*
X0199593Y0123754D01*
X0199533Y0123696D01*
X0199470Y0123641D01*
X0199405Y0123589D01*
X0199337Y0123540D01*
X0199267Y0123494D01*
X0199195Y0123452D01*
X0199121Y0123413D01*
X0199045Y0123377D01*
X0198967Y0123345D01*
X0198889Y0123317D01*
X0198808Y0123293D01*
X0198727Y0123272D01*
X0198645Y0123256D01*
X0198563Y0123243D01*
X0198479Y0123234D01*
X0198396Y0123229D01*
X0198312Y0123228D01*
X0198228Y0123231D01*
X0198145Y0123238D01*
X0198062Y0123249D01*
X0197980Y0123264D01*
X0197898Y0123282D01*
X0197817Y0123305D01*
X0197738Y0123331D01*
X0197660Y0123361D01*
X0197583Y0123395D01*
X0197508Y0123432D01*
X0197435Y0123472D01*
X0197364Y0123517D01*
X0197295Y0123564D01*
X0197228Y0123615D01*
X0197164Y0123668D01*
X0197102Y0123725D01*
X0197044Y0123785D01*
X0196988Y0123847D01*
X0196935Y0123912D01*
X0196885Y0123979D01*
X0196838Y0124048D01*
X0196795Y0124120D01*
X0196755Y0124194D01*
X0196719Y0124269D01*
X0196686Y0124346D01*
X0196657Y0124425D01*
X0196632Y0124504D01*
X0196610Y0124585D01*
X0196593Y0124667D01*
X0196579Y0124750D01*
X0196569Y0124833D01*
X0196563Y0124916D01*
X0196561Y0125000D01*
X0156561Y0125000D02*
X0156563Y0125084D01*
X0156569Y0125167D01*
X0156579Y0125250D01*
X0156593Y0125333D01*
X0156610Y0125415D01*
X0156632Y0125496D01*
X0156657Y0125575D01*
X0156686Y0125654D01*
X0156719Y0125731D01*
X0156755Y0125806D01*
X0156795Y0125880D01*
X0156838Y0125952D01*
X0156885Y0126021D01*
X0156935Y0126088D01*
X0156988Y0126153D01*
X0157044Y0126215D01*
X0157102Y0126275D01*
X0157164Y0126332D01*
X0157228Y0126385D01*
X0157295Y0126436D01*
X0157364Y0126483D01*
X0157435Y0126528D01*
X0157508Y0126568D01*
X0157583Y0126605D01*
X0157660Y0126639D01*
X0157738Y0126669D01*
X0157817Y0126695D01*
X0157898Y0126718D01*
X0157980Y0126736D01*
X0158062Y0126751D01*
X0158145Y0126762D01*
X0158228Y0126769D01*
X0158312Y0126772D01*
X0158396Y0126771D01*
X0158479Y0126766D01*
X0158563Y0126757D01*
X0158645Y0126744D01*
X0158727Y0126728D01*
X0158808Y0126707D01*
X0158889Y0126683D01*
X0158967Y0126655D01*
X0159045Y0126623D01*
X0159121Y0126587D01*
X0159195Y0126548D01*
X0159267Y0126506D01*
X0159337Y0126460D01*
X0159405Y0126411D01*
X0159470Y0126359D01*
X0159533Y0126304D01*
X0159593Y0126246D01*
X0159651Y0126185D01*
X0159705Y0126121D01*
X0159757Y0126055D01*
X0159805Y0125987D01*
X0159850Y0125916D01*
X0159891Y0125843D01*
X0159930Y0125769D01*
X0159964Y0125693D01*
X0159995Y0125615D01*
X0160022Y0125536D01*
X0160046Y0125455D01*
X0160065Y0125374D01*
X0160081Y0125292D01*
X0160093Y0125209D01*
X0160101Y0125125D01*
X0160105Y0125042D01*
X0160105Y0124958D01*
X0160101Y0124875D01*
X0160093Y0124791D01*
X0160081Y0124708D01*
X0160065Y0124626D01*
X0160046Y0124545D01*
X0160022Y0124464D01*
X0159995Y0124385D01*
X0159964Y0124307D01*
X0159930Y0124231D01*
X0159891Y0124157D01*
X0159850Y0124084D01*
X0159805Y0124013D01*
X0159757Y0123945D01*
X0159705Y0123879D01*
X0159651Y0123815D01*
X0159593Y0123754D01*
X0159533Y0123696D01*
X0159470Y0123641D01*
X0159405Y0123589D01*
X0159337Y0123540D01*
X0159267Y0123494D01*
X0159195Y0123452D01*
X0159121Y0123413D01*
X0159045Y0123377D01*
X0158967Y0123345D01*
X0158889Y0123317D01*
X0158808Y0123293D01*
X0158727Y0123272D01*
X0158645Y0123256D01*
X0158563Y0123243D01*
X0158479Y0123234D01*
X0158396Y0123229D01*
X0158312Y0123228D01*
X0158228Y0123231D01*
X0158145Y0123238D01*
X0158062Y0123249D01*
X0157980Y0123264D01*
X0157898Y0123282D01*
X0157817Y0123305D01*
X0157738Y0123331D01*
X0157660Y0123361D01*
X0157583Y0123395D01*
X0157508Y0123432D01*
X0157435Y0123472D01*
X0157364Y0123517D01*
X0157295Y0123564D01*
X0157228Y0123615D01*
X0157164Y0123668D01*
X0157102Y0123725D01*
X0157044Y0123785D01*
X0156988Y0123847D01*
X0156935Y0123912D01*
X0156885Y0123979D01*
X0156838Y0124048D01*
X0156795Y0124120D01*
X0156755Y0124194D01*
X0156719Y0124269D01*
X0156686Y0124346D01*
X0156657Y0124425D01*
X0156632Y0124504D01*
X0156610Y0124585D01*
X0156593Y0124667D01*
X0156579Y0124750D01*
X0156569Y0124833D01*
X0156563Y0124916D01*
X0156561Y0125000D01*
X0131561Y0050000D02*
X0131563Y0050084D01*
X0131569Y0050167D01*
X0131579Y0050250D01*
X0131593Y0050333D01*
X0131610Y0050415D01*
X0131632Y0050496D01*
X0131657Y0050575D01*
X0131686Y0050654D01*
X0131719Y0050731D01*
X0131755Y0050806D01*
X0131795Y0050880D01*
X0131838Y0050952D01*
X0131885Y0051021D01*
X0131935Y0051088D01*
X0131988Y0051153D01*
X0132044Y0051215D01*
X0132102Y0051275D01*
X0132164Y0051332D01*
X0132228Y0051385D01*
X0132295Y0051436D01*
X0132364Y0051483D01*
X0132435Y0051528D01*
X0132508Y0051568D01*
X0132583Y0051605D01*
X0132660Y0051639D01*
X0132738Y0051669D01*
X0132817Y0051695D01*
X0132898Y0051718D01*
X0132980Y0051736D01*
X0133062Y0051751D01*
X0133145Y0051762D01*
X0133228Y0051769D01*
X0133312Y0051772D01*
X0133396Y0051771D01*
X0133479Y0051766D01*
X0133563Y0051757D01*
X0133645Y0051744D01*
X0133727Y0051728D01*
X0133808Y0051707D01*
X0133889Y0051683D01*
X0133967Y0051655D01*
X0134045Y0051623D01*
X0134121Y0051587D01*
X0134195Y0051548D01*
X0134267Y0051506D01*
X0134337Y0051460D01*
X0134405Y0051411D01*
X0134470Y0051359D01*
X0134533Y0051304D01*
X0134593Y0051246D01*
X0134651Y0051185D01*
X0134705Y0051121D01*
X0134757Y0051055D01*
X0134805Y0050987D01*
X0134850Y0050916D01*
X0134891Y0050843D01*
X0134930Y0050769D01*
X0134964Y0050693D01*
X0134995Y0050615D01*
X0135022Y0050536D01*
X0135046Y0050455D01*
X0135065Y0050374D01*
X0135081Y0050292D01*
X0135093Y0050209D01*
X0135101Y0050125D01*
X0135105Y0050042D01*
X0135105Y0049958D01*
X0135101Y0049875D01*
X0135093Y0049791D01*
X0135081Y0049708D01*
X0135065Y0049626D01*
X0135046Y0049545D01*
X0135022Y0049464D01*
X0134995Y0049385D01*
X0134964Y0049307D01*
X0134930Y0049231D01*
X0134891Y0049157D01*
X0134850Y0049084D01*
X0134805Y0049013D01*
X0134757Y0048945D01*
X0134705Y0048879D01*
X0134651Y0048815D01*
X0134593Y0048754D01*
X0134533Y0048696D01*
X0134470Y0048641D01*
X0134405Y0048589D01*
X0134337Y0048540D01*
X0134267Y0048494D01*
X0134195Y0048452D01*
X0134121Y0048413D01*
X0134045Y0048377D01*
X0133967Y0048345D01*
X0133889Y0048317D01*
X0133808Y0048293D01*
X0133727Y0048272D01*
X0133645Y0048256D01*
X0133563Y0048243D01*
X0133479Y0048234D01*
X0133396Y0048229D01*
X0133312Y0048228D01*
X0133228Y0048231D01*
X0133145Y0048238D01*
X0133062Y0048249D01*
X0132980Y0048264D01*
X0132898Y0048282D01*
X0132817Y0048305D01*
X0132738Y0048331D01*
X0132660Y0048361D01*
X0132583Y0048395D01*
X0132508Y0048432D01*
X0132435Y0048472D01*
X0132364Y0048517D01*
X0132295Y0048564D01*
X0132228Y0048615D01*
X0132164Y0048668D01*
X0132102Y0048725D01*
X0132044Y0048785D01*
X0131988Y0048847D01*
X0131935Y0048912D01*
X0131885Y0048979D01*
X0131838Y0049048D01*
X0131795Y0049120D01*
X0131755Y0049194D01*
X0131719Y0049269D01*
X0131686Y0049346D01*
X0131657Y0049425D01*
X0131632Y0049504D01*
X0131610Y0049585D01*
X0131593Y0049667D01*
X0131579Y0049750D01*
X0131569Y0049833D01*
X0131563Y0049916D01*
X0131561Y0050000D01*
X0221561Y0050000D02*
X0221563Y0050084D01*
X0221569Y0050167D01*
X0221579Y0050250D01*
X0221593Y0050333D01*
X0221610Y0050415D01*
X0221632Y0050496D01*
X0221657Y0050575D01*
X0221686Y0050654D01*
X0221719Y0050731D01*
X0221755Y0050806D01*
X0221795Y0050880D01*
X0221838Y0050952D01*
X0221885Y0051021D01*
X0221935Y0051088D01*
X0221988Y0051153D01*
X0222044Y0051215D01*
X0222102Y0051275D01*
X0222164Y0051332D01*
X0222228Y0051385D01*
X0222295Y0051436D01*
X0222364Y0051483D01*
X0222435Y0051528D01*
X0222508Y0051568D01*
X0222583Y0051605D01*
X0222660Y0051639D01*
X0222738Y0051669D01*
X0222817Y0051695D01*
X0222898Y0051718D01*
X0222980Y0051736D01*
X0223062Y0051751D01*
X0223145Y0051762D01*
X0223228Y0051769D01*
X0223312Y0051772D01*
X0223396Y0051771D01*
X0223479Y0051766D01*
X0223563Y0051757D01*
X0223645Y0051744D01*
X0223727Y0051728D01*
X0223808Y0051707D01*
X0223889Y0051683D01*
X0223967Y0051655D01*
X0224045Y0051623D01*
X0224121Y0051587D01*
X0224195Y0051548D01*
X0224267Y0051506D01*
X0224337Y0051460D01*
X0224405Y0051411D01*
X0224470Y0051359D01*
X0224533Y0051304D01*
X0224593Y0051246D01*
X0224651Y0051185D01*
X0224705Y0051121D01*
X0224757Y0051055D01*
X0224805Y0050987D01*
X0224850Y0050916D01*
X0224891Y0050843D01*
X0224930Y0050769D01*
X0224964Y0050693D01*
X0224995Y0050615D01*
X0225022Y0050536D01*
X0225046Y0050455D01*
X0225065Y0050374D01*
X0225081Y0050292D01*
X0225093Y0050209D01*
X0225101Y0050125D01*
X0225105Y0050042D01*
X0225105Y0049958D01*
X0225101Y0049875D01*
X0225093Y0049791D01*
X0225081Y0049708D01*
X0225065Y0049626D01*
X0225046Y0049545D01*
X0225022Y0049464D01*
X0224995Y0049385D01*
X0224964Y0049307D01*
X0224930Y0049231D01*
X0224891Y0049157D01*
X0224850Y0049084D01*
X0224805Y0049013D01*
X0224757Y0048945D01*
X0224705Y0048879D01*
X0224651Y0048815D01*
X0224593Y0048754D01*
X0224533Y0048696D01*
X0224470Y0048641D01*
X0224405Y0048589D01*
X0224337Y0048540D01*
X0224267Y0048494D01*
X0224195Y0048452D01*
X0224121Y0048413D01*
X0224045Y0048377D01*
X0223967Y0048345D01*
X0223889Y0048317D01*
X0223808Y0048293D01*
X0223727Y0048272D01*
X0223645Y0048256D01*
X0223563Y0048243D01*
X0223479Y0048234D01*
X0223396Y0048229D01*
X0223312Y0048228D01*
X0223228Y0048231D01*
X0223145Y0048238D01*
X0223062Y0048249D01*
X0222980Y0048264D01*
X0222898Y0048282D01*
X0222817Y0048305D01*
X0222738Y0048331D01*
X0222660Y0048361D01*
X0222583Y0048395D01*
X0222508Y0048432D01*
X0222435Y0048472D01*
X0222364Y0048517D01*
X0222295Y0048564D01*
X0222228Y0048615D01*
X0222164Y0048668D01*
X0222102Y0048725D01*
X0222044Y0048785D01*
X0221988Y0048847D01*
X0221935Y0048912D01*
X0221885Y0048979D01*
X0221838Y0049048D01*
X0221795Y0049120D01*
X0221755Y0049194D01*
X0221719Y0049269D01*
X0221686Y0049346D01*
X0221657Y0049425D01*
X0221632Y0049504D01*
X0221610Y0049585D01*
X0221593Y0049667D01*
X0221579Y0049750D01*
X0221569Y0049833D01*
X0221563Y0049916D01*
X0221561Y0050000D01*
M02*
