G75*
%MOIN*%
%OFA0B0*%
%FSLAX25Y25*%
%IPPOS*%
%LPD*%
%AMOC8*
5,1,8,0,0,1.08239X$1,22.5*
%
%ADD10R,0.40000X0.12500*%
%ADD11R,0.04331X0.03937*%
%ADD12R,0.04724X0.02362*%
%ADD13R,0.04724X0.07874*%
%ADD14R,0.02362X0.05315*%
%ADD15R,0.03937X0.04331*%
%ADD16R,0.02500X0.05000*%
%ADD17R,0.01600X0.01000*%
%ADD18C,0.07400*%
%ADD19C,0.02500*%
%ADD20R,0.03937X0.01181*%
%ADD21C,0.01181*%
%ADD22R,0.05000X0.20000*%
%ADD23C,0.00800*%
%ADD24C,0.01600*%
%ADD25C,0.03400*%
%ADD26C,0.02900*%
D10*
X0178333Y0111250D03*
D11*
X0159180Y0097500D03*
X0152487Y0097500D03*
X0197487Y0097500D03*
X0204180Y0097500D03*
X0216487Y0070000D03*
X0223180Y0070000D03*
X0140180Y0055000D03*
X0133487Y0055000D03*
D12*
X0152310Y0075000D03*
X0152310Y0080000D03*
X0152310Y0085000D03*
X0152310Y0090000D03*
X0174357Y0090000D03*
X0174357Y0085000D03*
X0174357Y0080000D03*
X0174357Y0075000D03*
D13*
X0167310Y0050531D03*
X0189357Y0050531D03*
X0189357Y0139469D03*
X0167310Y0139469D03*
D14*
X0172428Y0125000D03*
X0176365Y0125000D03*
X0180302Y0125000D03*
X0184239Y0125000D03*
X0184239Y0065000D03*
X0180302Y0065000D03*
X0176365Y0065000D03*
X0172428Y0065000D03*
D15*
X0158333Y0131654D03*
X0158333Y0138346D03*
X0198333Y0138346D03*
X0198333Y0131654D03*
D16*
X0182333Y0097500D03*
X0178333Y0097500D03*
X0174333Y0097500D03*
D17*
X0176333Y0097500D03*
X0180333Y0097500D03*
D18*
X0198333Y0050000D03*
X0208333Y0050000D03*
X0158333Y0050000D03*
X0148333Y0050000D03*
D19*
X0214333Y0065000D03*
X0133333Y0140000D03*
D20*
X0187762Y0083937D03*
X0187762Y0081969D03*
X0187762Y0080000D03*
X0187762Y0078031D03*
X0187762Y0076063D03*
X0203904Y0076063D03*
X0203904Y0078031D03*
X0203904Y0080000D03*
X0203904Y0081969D03*
X0203904Y0083937D03*
D21*
X0138908Y0067878D02*
X0138908Y0065122D01*
X0138908Y0067878D02*
X0141664Y0067878D01*
X0141664Y0065122D01*
X0138908Y0065122D01*
X0138908Y0066302D02*
X0141664Y0066302D01*
X0141664Y0067482D02*
X0138908Y0067482D01*
X0132003Y0067878D02*
X0132003Y0065122D01*
X0132003Y0067878D02*
X0134759Y0067878D01*
X0134759Y0065122D01*
X0132003Y0065122D01*
X0132003Y0066302D02*
X0134759Y0066302D01*
X0134759Y0067482D02*
X0132003Y0067482D01*
D22*
X0133333Y0088000D03*
X0143333Y0088000D03*
X0213333Y0088000D03*
X0223333Y0088000D03*
D23*
X0130333Y0063693D02*
X0130333Y0057960D01*
X0130462Y0058089D01*
X0130781Y0058273D01*
X0131137Y0058368D01*
X0133087Y0058368D01*
X0133087Y0055400D01*
X0133887Y0055400D01*
X0133887Y0058368D01*
X0134571Y0058368D01*
X0131299Y0061641D01*
X0130933Y0062523D01*
X0130933Y0063093D01*
X0130333Y0063693D01*
X0130333Y0063366D02*
X0130661Y0063366D01*
X0130933Y0062567D02*
X0130333Y0062567D01*
X0130333Y0061769D02*
X0131246Y0061769D01*
X0131969Y0060970D02*
X0130333Y0060970D01*
X0130333Y0060172D02*
X0132767Y0060172D01*
X0133566Y0059373D02*
X0130333Y0059373D01*
X0130333Y0058575D02*
X0134365Y0058575D01*
X0133887Y0057776D02*
X0133087Y0057776D01*
X0133087Y0056978D02*
X0133887Y0056978D01*
X0133887Y0056179D02*
X0133087Y0056179D01*
X0140180Y0055000D02*
X0140333Y0054846D01*
X0140333Y0050000D01*
X0143945Y0052621D02*
X0143945Y0057600D01*
X0155933Y0057600D01*
X0155933Y0054743D01*
X0155331Y0054493D01*
X0153840Y0053002D01*
X0153213Y0051487D01*
X0153060Y0051958D01*
X0152695Y0052673D01*
X0152223Y0053322D01*
X0151656Y0053890D01*
X0151006Y0054362D01*
X0150291Y0054726D01*
X0149528Y0054974D01*
X0148735Y0055100D01*
X0148733Y0055100D01*
X0148733Y0050400D01*
X0147933Y0050400D01*
X0147933Y0055100D01*
X0147932Y0055100D01*
X0147139Y0054974D01*
X0146376Y0054726D01*
X0145660Y0054362D01*
X0145011Y0053890D01*
X0144443Y0053322D01*
X0143971Y0052673D01*
X0143945Y0052621D01*
X0143945Y0052985D02*
X0144198Y0052985D01*
X0143945Y0053784D02*
X0144904Y0053784D01*
X0143945Y0054582D02*
X0146093Y0054582D01*
X0147933Y0054582D02*
X0148733Y0054582D01*
X0148733Y0053784D02*
X0147933Y0053784D01*
X0147933Y0052985D02*
X0148733Y0052985D01*
X0148733Y0052187D02*
X0147933Y0052187D01*
X0147933Y0051388D02*
X0148733Y0051388D01*
X0148733Y0050590D02*
X0147933Y0050590D01*
X0151762Y0053784D02*
X0154622Y0053784D01*
X0153833Y0052985D02*
X0152468Y0052985D01*
X0152943Y0052187D02*
X0153502Y0052187D01*
X0155546Y0054582D02*
X0150574Y0054582D01*
X0155933Y0055381D02*
X0143945Y0055381D01*
X0143945Y0056179D02*
X0155933Y0056179D01*
X0155933Y0056978D02*
X0143945Y0056978D01*
X0152310Y0060000D02*
X0153333Y0060000D01*
X0152310Y0060000D02*
X0152310Y0075000D01*
X0158333Y0077000D02*
X0158333Y0080000D01*
X0152310Y0080000D01*
X0158333Y0080000D02*
X0158333Y0082500D01*
X0155833Y0085000D01*
X0152310Y0085000D01*
X0155616Y0087500D02*
X0156068Y0087952D01*
X0156606Y0087414D01*
X0157727Y0086950D01*
X0158940Y0086950D01*
X0160061Y0087414D01*
X0160919Y0088272D01*
X0161383Y0089393D01*
X0161383Y0090607D01*
X0160919Y0091728D01*
X0160061Y0092586D01*
X0158940Y0093050D01*
X0157727Y0093050D01*
X0156606Y0092586D01*
X0156068Y0092048D01*
X0155335Y0092781D01*
X0154487Y0092781D01*
X0154487Y0093931D01*
X0155315Y0093931D01*
X0155975Y0094591D01*
X0156155Y0094411D01*
X0156474Y0094227D01*
X0156830Y0094131D01*
X0158780Y0094131D01*
X0158780Y0097100D01*
X0159580Y0097100D01*
X0159580Y0097900D01*
X0162605Y0097900D01*
X0165005Y0095500D01*
X0166662Y0095500D01*
X0171483Y0095500D01*
X0171483Y0095000D01*
X0170005Y0095000D01*
X0162505Y0087500D01*
X0161333Y0086328D01*
X0161333Y0077727D01*
X0160919Y0078728D01*
X0160333Y0079313D01*
X0160333Y0083328D01*
X0156662Y0087000D01*
X0156116Y0087000D01*
X0155616Y0087500D01*
X0155795Y0087321D02*
X0156831Y0087321D01*
X0157139Y0086523D02*
X0161527Y0086523D01*
X0161333Y0085724D02*
X0157938Y0085724D01*
X0158736Y0084926D02*
X0161333Y0084926D01*
X0161333Y0084127D02*
X0159535Y0084127D01*
X0160333Y0083329D02*
X0161333Y0083329D01*
X0161333Y0082530D02*
X0160333Y0082530D01*
X0160333Y0081732D02*
X0161333Y0081732D01*
X0161333Y0080933D02*
X0160333Y0080933D01*
X0160333Y0080134D02*
X0161333Y0080134D01*
X0161333Y0079336D02*
X0160333Y0079336D01*
X0160998Y0078537D02*
X0161333Y0078537D01*
X0161329Y0077739D02*
X0161333Y0077739D01*
X0165333Y0077739D02*
X0166281Y0077739D01*
X0166606Y0077414D02*
X0167727Y0076950D01*
X0168940Y0076950D01*
X0170061Y0077414D01*
X0170599Y0077952D01*
X0171051Y0077500D01*
X0170395Y0076844D01*
X0170395Y0073156D01*
X0171332Y0072219D01*
X0177330Y0072219D01*
X0177283Y0072107D01*
X0177283Y0070893D01*
X0177748Y0069772D01*
X0178302Y0069218D01*
X0178302Y0069164D01*
X0178209Y0069257D01*
X0174521Y0069257D01*
X0174198Y0068934D01*
X0174149Y0068962D01*
X0173793Y0069057D01*
X0172618Y0069057D01*
X0172618Y0065191D01*
X0172237Y0065191D01*
X0172237Y0069057D01*
X0171062Y0069057D01*
X0170706Y0068962D01*
X0170387Y0068778D01*
X0170126Y0068517D01*
X0169942Y0068198D01*
X0169847Y0067842D01*
X0169847Y0065191D01*
X0172237Y0065191D01*
X0172237Y0064809D01*
X0169847Y0064809D01*
X0169847Y0062400D01*
X0165333Y0062400D01*
X0165333Y0079273D01*
X0165748Y0078272D01*
X0166606Y0077414D01*
X0165333Y0076940D02*
X0170491Y0076940D01*
X0170395Y0076142D02*
X0165333Y0076142D01*
X0165333Y0075343D02*
X0170395Y0075343D01*
X0170395Y0074545D02*
X0165333Y0074545D01*
X0165333Y0073746D02*
X0170395Y0073746D01*
X0170603Y0072948D02*
X0165333Y0072948D01*
X0165333Y0072149D02*
X0177301Y0072149D01*
X0177283Y0071351D02*
X0165333Y0071351D01*
X0165333Y0070552D02*
X0177425Y0070552D01*
X0177766Y0069754D02*
X0165333Y0069754D01*
X0165333Y0068955D02*
X0170695Y0068955D01*
X0169931Y0068157D02*
X0165333Y0068157D01*
X0165333Y0067358D02*
X0169847Y0067358D01*
X0169847Y0066560D02*
X0165333Y0066560D01*
X0165333Y0065761D02*
X0169847Y0065761D01*
X0169847Y0064164D02*
X0165333Y0064164D01*
X0165333Y0063366D02*
X0169847Y0063366D01*
X0169847Y0062567D02*
X0165333Y0062567D01*
X0165333Y0064963D02*
X0172237Y0064963D01*
X0172237Y0065761D02*
X0172618Y0065761D01*
X0172618Y0066560D02*
X0172237Y0066560D01*
X0172237Y0067358D02*
X0172618Y0067358D01*
X0172618Y0068157D02*
X0172237Y0068157D01*
X0172237Y0068955D02*
X0172618Y0068955D01*
X0174161Y0068955D02*
X0174219Y0068955D01*
X0180302Y0071469D02*
X0180333Y0071500D01*
X0180302Y0071469D02*
X0180302Y0065000D01*
X0184239Y0065000D02*
X0193333Y0065000D01*
X0203333Y0065000D01*
X0208333Y0060000D01*
X0208333Y0050000D01*
X0212045Y0053784D02*
X0226333Y0053784D01*
X0226333Y0054582D02*
X0211121Y0054582D01*
X0211336Y0054493D02*
X0210333Y0054908D01*
X0210333Y0060828D01*
X0205333Y0065828D01*
X0204162Y0067000D01*
X0195333Y0067000D01*
X0195333Y0072273D01*
X0195748Y0071272D01*
X0196606Y0070414D01*
X0197727Y0069950D01*
X0198940Y0069950D01*
X0200061Y0070414D01*
X0200919Y0071272D01*
X0201383Y0072393D01*
X0201383Y0073607D01*
X0201273Y0073872D01*
X0206535Y0073872D01*
X0207473Y0074810D01*
X0207473Y0075032D01*
X0208505Y0074000D01*
X0220933Y0074000D01*
X0220933Y0073568D01*
X0220352Y0073568D01*
X0219692Y0072909D01*
X0219512Y0073089D01*
X0219193Y0073273D01*
X0218837Y0073368D01*
X0216887Y0073368D01*
X0216887Y0070400D01*
X0216087Y0070400D01*
X0216087Y0073368D01*
X0214137Y0073368D01*
X0213781Y0073273D01*
X0213462Y0073089D01*
X0213201Y0072828D01*
X0213017Y0072509D01*
X0212922Y0072153D01*
X0212922Y0070400D01*
X0216087Y0070400D01*
X0216087Y0069600D01*
X0216887Y0069600D01*
X0216887Y0066631D01*
X0218837Y0066631D01*
X0219193Y0066727D01*
X0219512Y0066911D01*
X0219692Y0067091D01*
X0220352Y0066431D01*
X0220780Y0066431D01*
X0220780Y0065841D01*
X0217989Y0063050D01*
X0217727Y0063050D01*
X0216606Y0062586D01*
X0215748Y0061728D01*
X0215283Y0060607D01*
X0215283Y0059393D01*
X0215748Y0058272D01*
X0216606Y0057414D01*
X0217727Y0056950D01*
X0218940Y0056950D01*
X0220061Y0057414D01*
X0220919Y0058272D01*
X0221383Y0059393D01*
X0221383Y0059656D01*
X0225214Y0063487D01*
X0225580Y0064369D01*
X0225580Y0066431D01*
X0226008Y0066431D01*
X0226333Y0066757D01*
X0226333Y0051568D01*
X0226192Y0051910D01*
X0225243Y0052858D01*
X0224004Y0053372D01*
X0222663Y0053372D01*
X0221423Y0052858D01*
X0220475Y0051910D01*
X0219962Y0050671D01*
X0219962Y0049329D01*
X0220475Y0048090D01*
X0221423Y0047142D01*
X0221765Y0047000D01*
X0212827Y0047000D01*
X0213633Y0048946D01*
X0213633Y0051054D01*
X0212826Y0053002D01*
X0211336Y0054493D01*
X0210333Y0055381D02*
X0226333Y0055381D01*
X0226333Y0056179D02*
X0210333Y0056179D01*
X0210333Y0056978D02*
X0217660Y0056978D01*
X0219007Y0056978D02*
X0226333Y0056978D01*
X0226333Y0057776D02*
X0220423Y0057776D01*
X0221044Y0058575D02*
X0226333Y0058575D01*
X0226333Y0059373D02*
X0221375Y0059373D01*
X0221899Y0060172D02*
X0226333Y0060172D01*
X0226333Y0060970D02*
X0222698Y0060970D01*
X0223496Y0061769D02*
X0226333Y0061769D01*
X0226333Y0062567D02*
X0224295Y0062567D01*
X0225093Y0063366D02*
X0226333Y0063366D01*
X0226333Y0064164D02*
X0225495Y0064164D01*
X0225580Y0064963D02*
X0226333Y0064963D01*
X0226333Y0065761D02*
X0225580Y0065761D01*
X0226136Y0066560D02*
X0226333Y0066560D01*
X0220701Y0065761D02*
X0217103Y0065761D01*
X0217183Y0065567D02*
X0216749Y0066614D01*
X0216087Y0067277D01*
X0216087Y0069600D01*
X0212922Y0069600D01*
X0212922Y0067847D01*
X0213005Y0067535D01*
X0212719Y0067416D01*
X0211917Y0066614D01*
X0211483Y0065567D01*
X0211483Y0064433D01*
X0211917Y0063386D01*
X0212719Y0062584D01*
X0213766Y0062150D01*
X0214900Y0062150D01*
X0215948Y0062584D01*
X0216749Y0063386D01*
X0217183Y0064433D01*
X0217183Y0065567D01*
X0217183Y0064963D02*
X0219902Y0064963D01*
X0219103Y0064164D02*
X0217072Y0064164D01*
X0216730Y0063366D02*
X0218305Y0063366D01*
X0216587Y0062567D02*
X0215908Y0062567D01*
X0215789Y0061769D02*
X0209393Y0061769D01*
X0208594Y0062567D02*
X0212759Y0062567D01*
X0211937Y0063366D02*
X0207796Y0063366D01*
X0206997Y0064164D02*
X0211595Y0064164D01*
X0211483Y0064963D02*
X0206199Y0064963D01*
X0205400Y0065761D02*
X0211564Y0065761D01*
X0211895Y0066560D02*
X0204602Y0066560D01*
X0200199Y0070552D02*
X0212922Y0070552D01*
X0212922Y0071351D02*
X0200952Y0071351D01*
X0201282Y0072149D02*
X0212922Y0072149D01*
X0213321Y0072948D02*
X0201383Y0072948D01*
X0201325Y0073746D02*
X0220933Y0073746D01*
X0219731Y0072948D02*
X0219653Y0072948D01*
X0216887Y0072948D02*
X0216087Y0072948D01*
X0216087Y0072149D02*
X0216887Y0072149D01*
X0216887Y0071351D02*
X0216087Y0071351D01*
X0216087Y0070552D02*
X0216887Y0070552D01*
X0216087Y0069754D02*
X0195333Y0069754D01*
X0195333Y0070552D02*
X0196468Y0070552D01*
X0195715Y0071351D02*
X0195333Y0071351D01*
X0195333Y0072149D02*
X0195384Y0072149D01*
X0198333Y0073000D02*
X0198333Y0079000D01*
X0201302Y0081969D01*
X0203904Y0081969D01*
X0207302Y0081969D01*
X0208333Y0083000D01*
X0208333Y0085000D01*
X0203904Y0083937D02*
X0195896Y0083937D01*
X0195833Y0084000D01*
X0195896Y0083937D02*
X0193333Y0081374D01*
X0193333Y0065000D01*
X0195333Y0067358D02*
X0212661Y0067358D01*
X0212922Y0068157D02*
X0195333Y0068157D01*
X0195333Y0068955D02*
X0212922Y0068955D01*
X0216087Y0068955D02*
X0216887Y0068955D01*
X0216887Y0068157D02*
X0216087Y0068157D01*
X0216087Y0067358D02*
X0216887Y0067358D01*
X0216772Y0066560D02*
X0220223Y0066560D01*
X0215434Y0060970D02*
X0210192Y0060970D01*
X0210333Y0060172D02*
X0215283Y0060172D01*
X0215292Y0059373D02*
X0210333Y0059373D01*
X0210333Y0058575D02*
X0215622Y0058575D01*
X0216244Y0057776D02*
X0210333Y0057776D01*
X0212834Y0052985D02*
X0221730Y0052985D01*
X0220752Y0052187D02*
X0213164Y0052187D01*
X0213495Y0051388D02*
X0220259Y0051388D01*
X0219962Y0050590D02*
X0213633Y0050590D01*
X0213633Y0049791D02*
X0219962Y0049791D01*
X0220101Y0048993D02*
X0213633Y0048993D01*
X0213322Y0048194D02*
X0220432Y0048194D01*
X0221170Y0047396D02*
X0212991Y0047396D01*
X0224937Y0052985D02*
X0226333Y0052985D01*
X0226333Y0052187D02*
X0225915Y0052187D01*
X0200333Y0060000D02*
X0198333Y0060000D01*
X0187528Y0070695D02*
X0187333Y0070500D01*
X0187762Y0070929D01*
X0187762Y0076063D01*
X0187762Y0078031D02*
X0182365Y0078031D01*
X0181833Y0077500D01*
X0179333Y0077500D01*
X0179333Y0078500D01*
X0177833Y0080000D01*
X0174357Y0080000D01*
X0177663Y0082500D02*
X0178163Y0083000D01*
X0179162Y0083000D01*
X0180363Y0084201D01*
X0180748Y0083272D01*
X0181606Y0082414D01*
X0182727Y0081950D01*
X0183555Y0081950D01*
X0183568Y0081937D01*
X0184194Y0081937D01*
X0184194Y0080715D01*
X0184394Y0080515D01*
X0184394Y0080031D01*
X0181536Y0080031D01*
X0181083Y0079578D01*
X0179833Y0080828D01*
X0178662Y0082000D01*
X0178163Y0082000D01*
X0177663Y0082500D01*
X0177693Y0082530D02*
X0181490Y0082530D01*
X0180724Y0083329D02*
X0179490Y0083329D01*
X0180289Y0084127D02*
X0180394Y0084127D01*
X0179833Y0082000D02*
X0181833Y0080000D01*
X0187762Y0080000D01*
X0184394Y0080134D02*
X0180527Y0080134D01*
X0179729Y0080933D02*
X0184194Y0080933D01*
X0184194Y0081732D02*
X0178930Y0081732D01*
X0178333Y0085000D02*
X0174357Y0085000D01*
X0170333Y0085000D01*
X0168333Y0083000D01*
X0168333Y0080000D01*
X0170386Y0077739D02*
X0170812Y0077739D01*
X0174357Y0075000D02*
X0177833Y0075000D01*
X0179333Y0076500D01*
X0179333Y0077500D01*
X0178333Y0085000D02*
X0181333Y0088000D01*
X0204180Y0088000D01*
X0213333Y0088000D01*
X0217433Y0088120D02*
X0219233Y0088120D01*
X0219233Y0088918D02*
X0217433Y0088918D01*
X0217433Y0089717D02*
X0219233Y0089717D01*
X0219233Y0090515D02*
X0217433Y0090515D01*
X0217433Y0091314D02*
X0219233Y0091314D01*
X0219233Y0092112D02*
X0217433Y0092112D01*
X0217433Y0092911D02*
X0219233Y0092911D01*
X0219233Y0093709D02*
X0217433Y0093709D01*
X0217433Y0094508D02*
X0219233Y0094508D01*
X0219233Y0095306D02*
X0217433Y0095306D01*
X0217433Y0096105D02*
X0219233Y0096105D01*
X0219233Y0096903D02*
X0217433Y0096903D01*
X0217433Y0097702D02*
X0219233Y0097702D01*
X0219233Y0098500D02*
X0217433Y0098500D01*
X0217433Y0098663D02*
X0216496Y0099600D01*
X0210171Y0099600D01*
X0209233Y0098663D01*
X0209233Y0090000D01*
X0206180Y0090000D01*
X0206180Y0093931D01*
X0207008Y0093931D01*
X0207945Y0094869D01*
X0207945Y0100131D01*
X0207008Y0101068D01*
X0206730Y0101068D01*
X0207162Y0101500D01*
X0208333Y0102672D01*
X0208333Y0112687D01*
X0208919Y0113272D01*
X0209383Y0114393D01*
X0209383Y0115607D01*
X0208919Y0116728D01*
X0208061Y0117586D01*
X0208026Y0117600D01*
X0219339Y0117600D01*
X0220283Y0116656D01*
X0220283Y0116393D01*
X0220748Y0115272D01*
X0220933Y0115087D01*
X0220933Y0099600D01*
X0220171Y0099600D01*
X0219233Y0098663D01*
X0219233Y0078000D01*
X0217433Y0078000D01*
X0217433Y0098663D01*
X0216797Y0099299D02*
X0219869Y0099299D01*
X0220933Y0100097D02*
X0207945Y0100097D01*
X0207945Y0099299D02*
X0209869Y0099299D01*
X0209233Y0098500D02*
X0207945Y0098500D01*
X0207945Y0097702D02*
X0209233Y0097702D01*
X0209233Y0096903D02*
X0207945Y0096903D01*
X0207945Y0096105D02*
X0209233Y0096105D01*
X0209233Y0095306D02*
X0207945Y0095306D01*
X0207584Y0094508D02*
X0209233Y0094508D01*
X0209233Y0093709D02*
X0206180Y0093709D01*
X0206180Y0092911D02*
X0209233Y0092911D01*
X0209233Y0092112D02*
X0206180Y0092112D01*
X0206180Y0091314D02*
X0209233Y0091314D01*
X0209233Y0090515D02*
X0206180Y0090515D01*
X0204180Y0088000D02*
X0204180Y0097500D01*
X0207181Y0100896D02*
X0220933Y0100896D01*
X0220933Y0101694D02*
X0207356Y0101694D01*
X0208155Y0102493D02*
X0220933Y0102493D01*
X0220933Y0103291D02*
X0208333Y0103291D01*
X0208333Y0104090D02*
X0220933Y0104090D01*
X0220933Y0104888D02*
X0208333Y0104888D01*
X0208333Y0105687D02*
X0220933Y0105687D01*
X0220933Y0106485D02*
X0208333Y0106485D01*
X0208333Y0107284D02*
X0220933Y0107284D01*
X0220933Y0108082D02*
X0208333Y0108082D01*
X0208333Y0108881D02*
X0220933Y0108881D01*
X0220933Y0109679D02*
X0208333Y0109679D01*
X0208333Y0110478D02*
X0220933Y0110478D01*
X0220933Y0111276D02*
X0208333Y0111276D01*
X0208333Y0112075D02*
X0220933Y0112075D01*
X0220933Y0112873D02*
X0208520Y0112873D01*
X0209085Y0113672D02*
X0220933Y0113672D01*
X0220933Y0114470D02*
X0209383Y0114470D01*
X0209383Y0115269D02*
X0220751Y0115269D01*
X0220418Y0116068D02*
X0209192Y0116068D01*
X0208781Y0116866D02*
X0220073Y0116866D01*
X0225061Y0119586D02*
X0225919Y0118728D01*
X0226333Y0117727D01*
X0226333Y0140000D01*
X0226276Y0140585D01*
X0225828Y0141667D01*
X0225000Y0142494D01*
X0223919Y0142942D01*
X0223333Y0143000D01*
X0213647Y0143000D01*
X0214419Y0142228D01*
X0214883Y0141107D01*
X0214883Y0139893D01*
X0214419Y0138772D01*
X0213561Y0137914D01*
X0212440Y0137450D01*
X0211612Y0137450D01*
X0210508Y0136346D01*
X0201902Y0136346D01*
X0201902Y0135518D01*
X0201383Y0135000D01*
X0201902Y0134482D01*
X0201902Y0133654D01*
X0202508Y0133654D01*
X0204162Y0132000D01*
X0204162Y0132000D01*
X0205333Y0130828D01*
X0205333Y0125813D01*
X0205919Y0125228D01*
X0206383Y0124107D01*
X0206383Y0122893D01*
X0206179Y0122400D01*
X0220811Y0122400D01*
X0221693Y0122035D01*
X0223677Y0120050D01*
X0223940Y0120050D01*
X0225061Y0119586D01*
X0225385Y0119262D02*
X0226333Y0119262D01*
X0226333Y0120060D02*
X0223667Y0120060D01*
X0222869Y0120859D02*
X0226333Y0120859D01*
X0226333Y0121657D02*
X0222070Y0121657D01*
X0226333Y0122456D02*
X0206202Y0122456D01*
X0206383Y0123254D02*
X0226333Y0123254D01*
X0226333Y0124053D02*
X0206383Y0124053D01*
X0206075Y0124851D02*
X0226333Y0124851D01*
X0226333Y0125650D02*
X0205497Y0125650D01*
X0205333Y0126448D02*
X0226333Y0126448D01*
X0226333Y0127247D02*
X0205333Y0127247D01*
X0205333Y0128045D02*
X0226333Y0128045D01*
X0226333Y0128844D02*
X0205333Y0128844D01*
X0205333Y0129642D02*
X0226333Y0129642D01*
X0226333Y0130441D02*
X0205333Y0130441D01*
X0204923Y0131239D02*
X0226333Y0131239D01*
X0226333Y0132038D02*
X0204124Y0132038D01*
X0203325Y0132836D02*
X0226333Y0132836D01*
X0226333Y0133635D02*
X0202527Y0133635D01*
X0201902Y0134433D02*
X0226333Y0134433D01*
X0226333Y0135232D02*
X0201615Y0135232D01*
X0201902Y0136030D02*
X0226333Y0136030D01*
X0226333Y0136829D02*
X0210991Y0136829D01*
X0209680Y0138346D02*
X0211833Y0140500D01*
X0209680Y0138346D02*
X0198333Y0138346D01*
X0194680Y0138346D01*
X0193333Y0137000D01*
X0193333Y0134500D01*
X0190333Y0131500D01*
X0183333Y0131500D01*
X0178333Y0131500D01*
X0176365Y0129531D01*
X0176365Y0125000D01*
X0172428Y0125000D02*
X0172428Y0128906D01*
X0170333Y0131000D01*
X0166333Y0131000D01*
X0162833Y0134500D01*
X0162833Y0137000D01*
X0161487Y0138346D01*
X0158333Y0138346D01*
X0154765Y0138426D02*
X0135766Y0138426D01*
X0135749Y0138386D02*
X0136183Y0139433D01*
X0136183Y0140567D01*
X0135749Y0141614D01*
X0134948Y0142416D01*
X0133900Y0142850D01*
X0132766Y0142850D01*
X0131719Y0142416D01*
X0130917Y0141614D01*
X0130483Y0140567D01*
X0130483Y0139433D01*
X0130917Y0138386D01*
X0131719Y0137584D01*
X0132766Y0137150D01*
X0133900Y0137150D01*
X0134948Y0137584D01*
X0135749Y0138386D01*
X0136097Y0139224D02*
X0154765Y0139224D01*
X0154765Y0140023D02*
X0136183Y0140023D01*
X0136078Y0140821D02*
X0154765Y0140821D01*
X0154765Y0141175D02*
X0154765Y0135518D01*
X0155283Y0135000D01*
X0154765Y0134482D01*
X0154765Y0133654D01*
X0151158Y0133654D01*
X0149987Y0132482D01*
X0148333Y0130828D01*
X0148333Y0102672D01*
X0149505Y0101500D01*
X0149936Y0101068D01*
X0149659Y0101068D01*
X0148722Y0100131D01*
X0148722Y0095000D01*
X0147433Y0095000D01*
X0147433Y0098663D01*
X0146496Y0099600D01*
X0140171Y0099600D01*
X0139233Y0098663D01*
X0139233Y0077337D01*
X0140171Y0076400D01*
X0141420Y0076400D01*
X0141248Y0076228D01*
X0140783Y0075107D01*
X0140783Y0074278D01*
X0138286Y0071781D01*
X0138286Y0070068D01*
X0138001Y0070068D01*
X0136833Y0068901D01*
X0135887Y0069847D01*
X0135887Y0076400D01*
X0136496Y0076400D01*
X0137433Y0077337D01*
X0137433Y0098663D01*
X0136496Y0099600D01*
X0130333Y0099600D01*
X0130333Y0140000D01*
X0130391Y0140585D01*
X0130839Y0141667D01*
X0131667Y0142494D01*
X0132748Y0142942D01*
X0133333Y0143000D01*
X0163348Y0143000D01*
X0163348Y0139314D01*
X0162315Y0140346D01*
X0161902Y0140346D01*
X0161902Y0141175D01*
X0160965Y0142112D01*
X0155702Y0142112D01*
X0154765Y0141175D01*
X0155210Y0141620D02*
X0135744Y0141620D01*
X0134942Y0142418D02*
X0163348Y0142418D01*
X0163348Y0141620D02*
X0161456Y0141620D01*
X0161902Y0140821D02*
X0163348Y0140821D01*
X0163348Y0140023D02*
X0162639Y0140023D01*
X0154765Y0137627D02*
X0134991Y0137627D01*
X0131676Y0137627D02*
X0130333Y0137627D01*
X0130333Y0136829D02*
X0154765Y0136829D01*
X0154765Y0136030D02*
X0130333Y0136030D01*
X0130333Y0135232D02*
X0155051Y0135232D01*
X0154765Y0134433D02*
X0130333Y0134433D01*
X0130333Y0133635D02*
X0151140Y0133635D01*
X0150341Y0132836D02*
X0130333Y0132836D01*
X0130333Y0132038D02*
X0149543Y0132038D01*
X0148744Y0131239D02*
X0130333Y0131239D01*
X0130333Y0130441D02*
X0148333Y0130441D01*
X0148333Y0129642D02*
X0130333Y0129642D01*
X0130333Y0128844D02*
X0148333Y0128844D01*
X0148333Y0128045D02*
X0130333Y0128045D01*
X0130333Y0127247D02*
X0148333Y0127247D01*
X0148333Y0126448D02*
X0130333Y0126448D01*
X0130333Y0125650D02*
X0148333Y0125650D01*
X0148333Y0124851D02*
X0130333Y0124851D01*
X0130333Y0124053D02*
X0148333Y0124053D01*
X0148333Y0123254D02*
X0130333Y0123254D01*
X0130333Y0122456D02*
X0148333Y0122456D01*
X0148333Y0121657D02*
X0130333Y0121657D01*
X0130333Y0120859D02*
X0148333Y0120859D01*
X0148333Y0120060D02*
X0130333Y0120060D01*
X0130333Y0119262D02*
X0148333Y0119262D01*
X0148333Y0118463D02*
X0130333Y0118463D01*
X0130333Y0117665D02*
X0148333Y0117665D01*
X0148333Y0116866D02*
X0130333Y0116866D01*
X0130333Y0116068D02*
X0148333Y0116068D01*
X0148333Y0115269D02*
X0130333Y0115269D01*
X0130333Y0114470D02*
X0148333Y0114470D01*
X0148333Y0113672D02*
X0130333Y0113672D01*
X0130333Y0112873D02*
X0148333Y0112873D01*
X0148333Y0112075D02*
X0130333Y0112075D01*
X0130333Y0111276D02*
X0148333Y0111276D01*
X0148333Y0110478D02*
X0130333Y0110478D01*
X0130333Y0109679D02*
X0148333Y0109679D01*
X0148333Y0108881D02*
X0130333Y0108881D01*
X0130333Y0108082D02*
X0148333Y0108082D01*
X0148333Y0107284D02*
X0130333Y0107284D01*
X0130333Y0106485D02*
X0148333Y0106485D01*
X0148333Y0105687D02*
X0130333Y0105687D01*
X0130333Y0104888D02*
X0148333Y0104888D01*
X0148333Y0104090D02*
X0130333Y0104090D01*
X0130333Y0103291D02*
X0148333Y0103291D01*
X0148512Y0102493D02*
X0130333Y0102493D01*
X0130333Y0101694D02*
X0149311Y0101694D01*
X0149486Y0100896D02*
X0130333Y0100896D01*
X0130333Y0100097D02*
X0148722Y0100097D01*
X0148722Y0099299D02*
X0146797Y0099299D01*
X0147433Y0098500D02*
X0148722Y0098500D01*
X0148722Y0097702D02*
X0147433Y0097702D01*
X0147433Y0096903D02*
X0148722Y0096903D01*
X0148722Y0096105D02*
X0147433Y0096105D01*
X0147433Y0095306D02*
X0148722Y0095306D01*
X0152487Y0097500D02*
X0152487Y0093000D01*
X0143333Y0093000D01*
X0143333Y0088000D01*
X0139233Y0088120D02*
X0137433Y0088120D01*
X0137433Y0088918D02*
X0139233Y0088918D01*
X0139233Y0089717D02*
X0137433Y0089717D01*
X0137433Y0090515D02*
X0139233Y0090515D01*
X0139233Y0091314D02*
X0137433Y0091314D01*
X0137433Y0092112D02*
X0139233Y0092112D01*
X0139233Y0092911D02*
X0137433Y0092911D01*
X0137433Y0093709D02*
X0139233Y0093709D01*
X0139233Y0094508D02*
X0137433Y0094508D01*
X0137433Y0095306D02*
X0139233Y0095306D01*
X0139233Y0096105D02*
X0137433Y0096105D01*
X0137433Y0096903D02*
X0139233Y0096903D01*
X0139233Y0097702D02*
X0137433Y0097702D01*
X0137433Y0098500D02*
X0139233Y0098500D01*
X0139869Y0099299D02*
X0136797Y0099299D01*
X0150333Y0103500D02*
X0150333Y0130000D01*
X0151987Y0131654D01*
X0158333Y0131654D01*
X0184429Y0125191D02*
X0186820Y0125191D01*
X0186820Y0127842D01*
X0186725Y0128198D01*
X0186540Y0128517D01*
X0186280Y0128778D01*
X0185960Y0128962D01*
X0185604Y0129057D01*
X0185204Y0129057D01*
X0185647Y0129500D01*
X0191162Y0129500D01*
X0192333Y0130672D01*
X0194765Y0133103D01*
X0194765Y0128825D01*
X0195702Y0127888D01*
X0196496Y0127888D01*
X0196423Y0127858D01*
X0195475Y0126910D01*
X0194962Y0125671D01*
X0194962Y0124329D01*
X0195475Y0123090D01*
X0196165Y0122400D01*
X0186820Y0122400D01*
X0186820Y0124809D01*
X0184429Y0124809D01*
X0184429Y0125191D01*
X0184429Y0124851D02*
X0194962Y0124851D01*
X0194962Y0125650D02*
X0186820Y0125650D01*
X0186820Y0126448D02*
X0195284Y0126448D01*
X0195812Y0127247D02*
X0186820Y0127247D01*
X0186765Y0128045D02*
X0195545Y0128045D01*
X0194765Y0128844D02*
X0186165Y0128844D01*
X0191304Y0129642D02*
X0194765Y0129642D01*
X0194765Y0130441D02*
X0192102Y0130441D01*
X0192901Y0131239D02*
X0194765Y0131239D01*
X0194765Y0132038D02*
X0193699Y0132038D01*
X0194498Y0132836D02*
X0194765Y0132836D01*
X0198333Y0131654D02*
X0201680Y0131654D01*
X0203333Y0130000D01*
X0203333Y0123500D01*
X0196109Y0122456D02*
X0186820Y0122456D01*
X0186820Y0123254D02*
X0195407Y0123254D01*
X0195076Y0124053D02*
X0186820Y0124053D01*
X0206333Y0115000D02*
X0206333Y0103500D01*
X0204833Y0102000D01*
X0195333Y0102000D01*
X0190833Y0097500D01*
X0182333Y0097500D01*
X0185183Y0095500D02*
X0191662Y0095500D01*
X0194062Y0097900D01*
X0197087Y0097900D01*
X0197087Y0097100D01*
X0197887Y0097100D01*
X0197887Y0094131D01*
X0199837Y0094131D01*
X0200193Y0094227D01*
X0200512Y0094411D01*
X0200692Y0094591D01*
X0201352Y0093931D01*
X0202180Y0093931D01*
X0202180Y0090000D01*
X0180505Y0090000D01*
X0177834Y0087329D01*
X0177506Y0087657D01*
X0177579Y0087699D01*
X0177839Y0087959D01*
X0178024Y0088279D01*
X0178119Y0088635D01*
X0178119Y0089809D01*
X0174548Y0089809D01*
X0174548Y0090191D01*
X0178119Y0090191D01*
X0178119Y0091365D01*
X0178100Y0091438D01*
X0180062Y0093400D01*
X0180246Y0093400D01*
X0180333Y0093487D01*
X0180421Y0093400D01*
X0184246Y0093400D01*
X0185183Y0094337D01*
X0185183Y0095500D01*
X0185183Y0095306D02*
X0193932Y0095306D01*
X0193922Y0095347D02*
X0194017Y0094991D01*
X0194201Y0094672D01*
X0194462Y0094411D01*
X0194781Y0094227D01*
X0195137Y0094131D01*
X0197087Y0094131D01*
X0197087Y0097100D01*
X0193922Y0097100D01*
X0193922Y0095347D01*
X0193922Y0096105D02*
X0192266Y0096105D01*
X0193065Y0096903D02*
X0193922Y0096903D01*
X0193863Y0097702D02*
X0197087Y0097702D01*
X0197087Y0096903D02*
X0197887Y0096903D01*
X0197887Y0096105D02*
X0197087Y0096105D01*
X0197087Y0095306D02*
X0197887Y0095306D01*
X0197887Y0094508D02*
X0197087Y0094508D01*
X0194365Y0094508D02*
X0185183Y0094508D01*
X0184555Y0093709D02*
X0202180Y0093709D01*
X0202180Y0092911D02*
X0179572Y0092911D01*
X0178774Y0092112D02*
X0202180Y0092112D01*
X0202180Y0091314D02*
X0178119Y0091314D01*
X0178119Y0090515D02*
X0202180Y0090515D01*
X0200775Y0094508D02*
X0200608Y0094508D01*
X0187762Y0083937D02*
X0184396Y0083937D01*
X0183333Y0085000D01*
X0179423Y0088918D02*
X0178119Y0088918D01*
X0178119Y0089717D02*
X0180222Y0089717D01*
X0178625Y0088120D02*
X0177932Y0088120D01*
X0174166Y0089809D02*
X0174166Y0090191D01*
X0170852Y0090191D01*
X0165333Y0084672D01*
X0165333Y0080727D01*
X0165748Y0081728D01*
X0166333Y0082313D01*
X0166333Y0083828D01*
X0167505Y0085000D01*
X0169505Y0087000D01*
X0170551Y0087000D01*
X0171208Y0087657D01*
X0171135Y0087699D01*
X0170874Y0087959D01*
X0170690Y0088279D01*
X0170595Y0088635D01*
X0170595Y0089809D01*
X0174166Y0089809D01*
X0170595Y0089717D02*
X0170378Y0089717D01*
X0170595Y0088918D02*
X0169580Y0088918D01*
X0168781Y0088120D02*
X0170782Y0088120D01*
X0170872Y0087321D02*
X0167983Y0087321D01*
X0167184Y0086523D02*
X0169027Y0086523D01*
X0168229Y0085724D02*
X0166386Y0085724D01*
X0165587Y0084926D02*
X0167430Y0084926D01*
X0166632Y0084127D02*
X0165333Y0084127D01*
X0165333Y0083329D02*
X0166333Y0083329D01*
X0166333Y0082530D02*
X0165333Y0082530D01*
X0165333Y0081732D02*
X0165752Y0081732D01*
X0165419Y0080933D02*
X0165333Y0080933D01*
X0165333Y0078537D02*
X0165638Y0078537D01*
X0163333Y0085500D02*
X0163333Y0060500D01*
X0163833Y0060000D01*
X0140286Y0066500D02*
X0140286Y0070953D01*
X0143833Y0074500D01*
X0140783Y0074545D02*
X0135887Y0074545D01*
X0135887Y0075343D02*
X0140881Y0075343D01*
X0141212Y0076142D02*
X0135887Y0076142D01*
X0137037Y0076940D02*
X0139630Y0076940D01*
X0139233Y0077739D02*
X0137433Y0077739D01*
X0137433Y0078537D02*
X0139233Y0078537D01*
X0139233Y0079336D02*
X0137433Y0079336D01*
X0137433Y0080134D02*
X0139233Y0080134D01*
X0139233Y0080933D02*
X0137433Y0080933D01*
X0137433Y0081732D02*
X0139233Y0081732D01*
X0139233Y0082530D02*
X0137433Y0082530D01*
X0137433Y0083329D02*
X0139233Y0083329D01*
X0139233Y0084127D02*
X0137433Y0084127D01*
X0137433Y0084926D02*
X0139233Y0084926D01*
X0139233Y0085724D02*
X0137433Y0085724D01*
X0137433Y0086523D02*
X0139233Y0086523D01*
X0139233Y0087321D02*
X0137433Y0087321D01*
X0152310Y0090000D02*
X0158333Y0090000D01*
X0156132Y0092112D02*
X0156004Y0092112D01*
X0157390Y0092911D02*
X0154487Y0092911D01*
X0154487Y0093709D02*
X0168714Y0093709D01*
X0167916Y0092911D02*
X0159276Y0092911D01*
X0159580Y0094131D02*
X0161529Y0094131D01*
X0161886Y0094227D01*
X0162205Y0094411D01*
X0162465Y0094672D01*
X0162650Y0094991D01*
X0162745Y0095347D01*
X0162745Y0097100D01*
X0159580Y0097100D01*
X0159580Y0094131D01*
X0159580Y0094508D02*
X0158780Y0094508D01*
X0158780Y0095306D02*
X0159580Y0095306D01*
X0159580Y0096105D02*
X0158780Y0096105D01*
X0158780Y0096903D02*
X0159580Y0096903D01*
X0159580Y0097702D02*
X0162803Y0097702D01*
X0162745Y0096903D02*
X0163602Y0096903D01*
X0164400Y0096105D02*
X0162745Y0096105D01*
X0162734Y0095306D02*
X0171483Y0095306D01*
X0169513Y0094508D02*
X0162301Y0094508D01*
X0160534Y0092112D02*
X0167117Y0092112D01*
X0166319Y0091314D02*
X0161090Y0091314D01*
X0161383Y0090515D02*
X0165520Y0090515D01*
X0164722Y0089717D02*
X0161383Y0089717D01*
X0161186Y0088918D02*
X0163923Y0088918D01*
X0163125Y0088120D02*
X0160766Y0088120D01*
X0159836Y0087321D02*
X0162326Y0087321D01*
X0163333Y0085500D02*
X0170833Y0093000D01*
X0176833Y0093000D01*
X0178333Y0094500D01*
X0178333Y0097500D01*
X0174333Y0097500D02*
X0165833Y0097500D01*
X0161333Y0102000D01*
X0151833Y0102000D01*
X0150333Y0103500D01*
X0155891Y0094508D02*
X0156058Y0094508D01*
X0152487Y0093000D02*
X0152487Y0090177D01*
X0152310Y0090000D01*
X0140251Y0073746D02*
X0135887Y0073746D01*
X0135887Y0072948D02*
X0139453Y0072948D01*
X0138654Y0072149D02*
X0135887Y0072149D01*
X0135887Y0071351D02*
X0138286Y0071351D01*
X0138286Y0070552D02*
X0135887Y0070552D01*
X0135980Y0069754D02*
X0137686Y0069754D01*
X0136888Y0068955D02*
X0136779Y0068955D01*
X0203904Y0080000D02*
X0207333Y0080000D01*
X0208333Y0079000D01*
X0208333Y0077000D01*
X0209333Y0076000D01*
X0223333Y0076000D01*
X0219233Y0078537D02*
X0217433Y0078537D01*
X0217433Y0079336D02*
X0219233Y0079336D01*
X0219233Y0080134D02*
X0217433Y0080134D01*
X0217433Y0080933D02*
X0219233Y0080933D01*
X0219233Y0081732D02*
X0217433Y0081732D01*
X0217433Y0082530D02*
X0219233Y0082530D01*
X0219233Y0083329D02*
X0217433Y0083329D01*
X0217433Y0084127D02*
X0219233Y0084127D01*
X0219233Y0084926D02*
X0217433Y0084926D01*
X0217433Y0085724D02*
X0219233Y0085724D01*
X0219233Y0086523D02*
X0217433Y0086523D01*
X0217433Y0087321D02*
X0219233Y0087321D01*
X0207960Y0074545D02*
X0207208Y0074545D01*
X0226029Y0118463D02*
X0226333Y0118463D01*
X0226333Y0137627D02*
X0212868Y0137627D01*
X0214073Y0138426D02*
X0226333Y0138426D01*
X0226333Y0139224D02*
X0214606Y0139224D01*
X0214883Y0140023D02*
X0226331Y0140023D01*
X0226178Y0140821D02*
X0214883Y0140821D01*
X0214671Y0141620D02*
X0225847Y0141620D01*
X0225076Y0142418D02*
X0214228Y0142418D01*
X0131724Y0142418D02*
X0131591Y0142418D01*
X0130923Y0141620D02*
X0130820Y0141620D01*
X0130589Y0140821D02*
X0130489Y0140821D01*
X0130483Y0140023D02*
X0130336Y0140023D01*
X0130333Y0139224D02*
X0130570Y0139224D01*
X0130333Y0138426D02*
X0130901Y0138426D01*
D24*
X0180302Y0125000D02*
X0180302Y0122031D01*
X0182333Y0120000D01*
X0220333Y0120000D01*
X0223333Y0117000D01*
X0223333Y0088000D01*
X0223333Y0076000D01*
X0223333Y0070000D01*
X0223180Y0070000D01*
X0223180Y0064846D01*
X0218333Y0060000D01*
X0203333Y0060000D02*
X0198333Y0060000D01*
X0176365Y0060000D01*
X0176365Y0065000D01*
X0176365Y0060000D02*
X0163833Y0060000D01*
X0158333Y0060000D01*
X0158333Y0050000D01*
X0158333Y0060000D02*
X0153333Y0060000D01*
X0136333Y0060000D01*
X0133333Y0063000D01*
X0133333Y0067346D01*
X0133381Y0067346D01*
X0133381Y0066500D01*
X0133487Y0066606D01*
X0133487Y0092846D01*
X0133333Y0092846D01*
X0133333Y0088000D01*
X0133333Y0085000D01*
D25*
X0203333Y0060000D03*
D26*
X0218333Y0060000D03*
X0203333Y0069000D03*
X0198333Y0073000D03*
X0187333Y0070500D03*
X0180333Y0071500D03*
X0168333Y0065000D03*
X0158333Y0077000D03*
X0168333Y0080000D03*
X0179833Y0082000D03*
X0183333Y0085000D03*
X0193333Y0092000D03*
X0195833Y0084000D03*
X0208333Y0085000D03*
X0163333Y0091500D03*
X0158333Y0090000D03*
X0138333Y0079000D03*
X0143833Y0074500D03*
X0131333Y0060000D03*
X0140333Y0050000D03*
X0133333Y0115000D03*
X0170333Y0131000D03*
X0183333Y0131500D03*
X0193333Y0126000D03*
X0203333Y0123500D03*
X0206333Y0115000D03*
X0211833Y0115000D03*
X0219333Y0115000D03*
X0223333Y0117000D03*
X0203833Y0133500D03*
X0211833Y0140500D03*
X0220333Y0141500D03*
M02*
