%
M48
M72
T01C0.0150
T02C0.0200
T03C0.0276
T04C0.0354
T05C0.0400
%
T01
X13133Y6000
X14033Y5000
X16833Y6500
X18033Y7150
X18733Y7050
X19833Y7300
X20333Y6900
X21833Y6000
X17983Y8200
X18333Y8500
X19333Y9200
X19583Y8400
X20833Y8500
X16833Y8000
X15833Y7700
X14383Y7450
X13833Y7900
X15833Y9000
X16333Y9150
X13333Y11500
X17033Y13100
X18333Y13150
X19333Y12600
X20333Y12350
X20633Y11500
X21183Y11500
X21933Y11500
X22333Y11700
X20383Y13350
X21183Y14050
X22033Y14150
T02
X20333Y6000
T03
X19833Y17000
X15833Y17000
T04
X15833Y12500
X19833Y12500
X22333Y5000
X13333Y5000
T05
X14833Y5000
X15833Y5000
X19833Y5000
X20833Y5000
M30
