G75*
%MOIN*%
%OFA0B0*%
%FSLAX25Y25*%
%IPPOS*%
%LPD*%
%AMOC8*
5,1,8,0,0,1.08239X$1,22.5*
%
%ADD10C,0.00800*%
%ADD11R,0.40000X0.07500*%
%ADD12R,0.02500X0.05000*%
%ADD13R,0.01600X0.01000*%
%ADD14C,0.07400*%
%ADD15C,0.02500*%
%ADD16C,0.03000*%
%ADD17C,0.03400*%
%ADD18C,0.02900*%
%ADD19C,0.01600*%
D10*
X0130333Y0051568D02*
X0130333Y0069515D01*
X0132882Y0068241D01*
X0134454Y0068765D01*
X0135195Y0070247D01*
X0134677Y0071801D01*
X0135195Y0073356D01*
X0134869Y0074009D01*
X0135265Y0074405D01*
X0135265Y0074405D01*
X0135592Y0074732D01*
X0136437Y0075577D01*
X0136437Y0077234D01*
X0135843Y0077828D01*
X0135314Y0078357D01*
X0135514Y0078558D01*
X0136437Y0079480D01*
X0136437Y0080881D01*
X0136437Y0081018D01*
X0136437Y0081137D01*
X0136437Y0082538D01*
X0136437Y0082538D01*
X0135487Y0083488D01*
X0135265Y0083710D01*
X0134633Y0084342D01*
X0134565Y0084410D01*
X0134565Y0084410D01*
X0134565Y0084410D01*
X0133779Y0084410D01*
X0130333Y0084410D01*
X0130333Y0140000D01*
X0130391Y0140585D01*
X0130839Y0141667D01*
X0131667Y0142494D01*
X0132748Y0142942D01*
X0133333Y0143000D01*
X0210020Y0143000D01*
X0209248Y0142228D01*
X0208783Y0141107D01*
X0208783Y0139893D01*
X0209248Y0138772D01*
X0209420Y0138600D01*
X0208983Y0138163D01*
X0208983Y0137178D01*
X0207162Y0139000D01*
X0172505Y0139000D01*
X0171333Y0137828D01*
X0168333Y0134828D01*
X0168333Y0133313D01*
X0167748Y0132728D01*
X0167283Y0131607D01*
X0167283Y0130393D01*
X0167748Y0129272D01*
X0168606Y0128414D01*
X0169727Y0127950D01*
X0170555Y0127950D01*
X0193833Y0104672D01*
X0193833Y0086313D01*
X0193248Y0085728D01*
X0192783Y0084607D01*
X0192783Y0083393D01*
X0192794Y0083368D01*
X0190333Y0085828D01*
X0189162Y0087000D01*
X0185647Y0087000D01*
X0185061Y0087586D01*
X0183940Y0088050D01*
X0182727Y0088050D01*
X0181606Y0087586D01*
X0180748Y0086728D01*
X0180283Y0085607D01*
X0180283Y0084393D01*
X0180748Y0083272D01*
X0181606Y0082414D01*
X0182727Y0081950D01*
X0183940Y0081950D01*
X0185061Y0082414D01*
X0185647Y0083000D01*
X0187505Y0083000D01*
X0191333Y0079172D01*
X0191333Y0079172D01*
X0192505Y0078000D01*
X0209162Y0078000D01*
X0216662Y0085500D01*
X0217833Y0086672D01*
X0217833Y0120987D01*
X0217833Y0120987D01*
X0217921Y0120900D01*
X0221333Y0120900D01*
X0221333Y0119313D01*
X0220748Y0118728D01*
X0220283Y0117607D01*
X0220283Y0116393D01*
X0220748Y0115272D01*
X0221606Y0114414D01*
X0222727Y0113950D01*
X0223940Y0113950D01*
X0225061Y0114414D01*
X0225919Y0115272D01*
X0226333Y0116273D01*
X0226333Y0051568D01*
X0226192Y0051910D01*
X0225243Y0052858D01*
X0224004Y0053372D01*
X0222663Y0053372D01*
X0221423Y0052858D01*
X0220475Y0051910D01*
X0219962Y0050671D01*
X0219962Y0049329D01*
X0220475Y0048090D01*
X0221423Y0047142D01*
X0221765Y0047000D01*
X0212827Y0047000D01*
X0213633Y0048946D01*
X0213633Y0051054D01*
X0212826Y0053002D01*
X0211336Y0054493D01*
X0209388Y0055300D01*
X0207279Y0055300D01*
X0205331Y0054493D01*
X0203840Y0053002D01*
X0203333Y0051778D01*
X0202826Y0053002D01*
X0201336Y0054493D01*
X0200333Y0054908D01*
X0200333Y0058619D01*
X0200536Y0058131D01*
X0201464Y0057202D01*
X0202677Y0056700D01*
X0203990Y0056700D01*
X0205203Y0057202D01*
X0205600Y0057600D01*
X0216420Y0057600D01*
X0216606Y0057414D01*
X0217727Y0056950D01*
X0218940Y0056950D01*
X0220061Y0057414D01*
X0220919Y0058272D01*
X0221383Y0059393D01*
X0221383Y0060607D01*
X0220919Y0061728D01*
X0220061Y0062586D01*
X0218940Y0063050D01*
X0217727Y0063050D01*
X0216606Y0062586D01*
X0216420Y0062400D01*
X0215504Y0062400D01*
X0215948Y0062584D01*
X0216749Y0063386D01*
X0217183Y0064433D01*
X0217183Y0065567D01*
X0216749Y0066614D01*
X0215948Y0067416D01*
X0214900Y0067850D01*
X0213766Y0067850D01*
X0212719Y0067416D01*
X0211917Y0066614D01*
X0211483Y0065567D01*
X0211483Y0064433D01*
X0211917Y0063386D01*
X0212719Y0062584D01*
X0213163Y0062400D01*
X0205600Y0062400D01*
X0205203Y0062798D01*
X0203990Y0063300D01*
X0202677Y0063300D01*
X0201464Y0062798D01*
X0200536Y0061869D01*
X0200333Y0061381D01*
X0200333Y0070687D01*
X0200919Y0071272D01*
X0201383Y0072393D01*
X0201383Y0073607D01*
X0200919Y0074728D01*
X0200061Y0075586D01*
X0198940Y0076050D01*
X0198112Y0076050D01*
X0197162Y0077000D01*
X0183005Y0077000D01*
X0181833Y0075828D01*
X0180555Y0074550D01*
X0179727Y0074550D01*
X0178606Y0074086D01*
X0177748Y0073228D01*
X0177283Y0072107D01*
X0177283Y0070893D01*
X0177653Y0070000D01*
X0161162Y0070000D01*
X0160333Y0070828D01*
X0160333Y0074687D01*
X0160919Y0075272D01*
X0161383Y0076393D01*
X0161383Y0077607D01*
X0160919Y0078728D01*
X0160061Y0079586D01*
X0158940Y0080050D01*
X0157727Y0080050D01*
X0156606Y0079586D01*
X0155748Y0078728D01*
X0155283Y0077607D01*
X0155283Y0076393D01*
X0155748Y0075272D01*
X0156333Y0074687D01*
X0156333Y0069172D01*
X0159505Y0066000D01*
X0185662Y0066000D01*
X0186833Y0067172D01*
X0187112Y0067450D01*
X0187940Y0067450D01*
X0189061Y0067914D01*
X0189919Y0068772D01*
X0190383Y0069893D01*
X0190383Y0071107D01*
X0189919Y0072228D01*
X0189147Y0073000D01*
X0195283Y0073000D01*
X0195283Y0072393D01*
X0195748Y0071272D01*
X0196333Y0070687D01*
X0196333Y0054908D01*
X0195331Y0054493D01*
X0193840Y0053002D01*
X0193033Y0051054D01*
X0193033Y0048946D01*
X0193839Y0047000D01*
X0162827Y0047000D01*
X0163633Y0048946D01*
X0163633Y0051054D01*
X0162826Y0053002D01*
X0161336Y0054493D01*
X0159388Y0055300D01*
X0157279Y0055300D01*
X0155331Y0054493D01*
X0153840Y0053002D01*
X0153213Y0051487D01*
X0153060Y0051958D01*
X0152695Y0052673D01*
X0152223Y0053322D01*
X0151656Y0053890D01*
X0151006Y0054362D01*
X0150291Y0054726D01*
X0149528Y0054974D01*
X0148735Y0055100D01*
X0148733Y0055100D01*
X0148733Y0050400D01*
X0147933Y0050400D01*
X0147933Y0055100D01*
X0147932Y0055100D01*
X0147139Y0054974D01*
X0146376Y0054726D01*
X0145833Y0054450D01*
X0145833Y0072187D01*
X0146419Y0072772D01*
X0146883Y0073893D01*
X0146883Y0075107D01*
X0146419Y0076228D01*
X0145561Y0077086D01*
X0144440Y0077550D01*
X0143227Y0077550D01*
X0142106Y0077086D01*
X0141248Y0076228D01*
X0140783Y0075107D01*
X0140783Y0073893D01*
X0141248Y0072772D01*
X0141833Y0072187D01*
X0141833Y0054328D01*
X0140555Y0053050D01*
X0139727Y0053050D01*
X0138606Y0052586D01*
X0137748Y0051728D01*
X0137283Y0050607D01*
X0137283Y0049393D01*
X0137748Y0048272D01*
X0138606Y0047414D01*
X0139606Y0047000D01*
X0134901Y0047000D01*
X0135243Y0047142D01*
X0136192Y0048090D01*
X0136705Y0049329D01*
X0136705Y0050671D01*
X0136192Y0051910D01*
X0135243Y0052858D01*
X0134004Y0053372D01*
X0132663Y0053372D01*
X0131423Y0052858D01*
X0130475Y0051910D01*
X0130333Y0051568D01*
X0130333Y0052187D02*
X0130752Y0052187D01*
X0130333Y0052985D02*
X0131730Y0052985D01*
X0130333Y0053784D02*
X0141289Y0053784D01*
X0141833Y0054582D02*
X0130333Y0054582D01*
X0130333Y0055381D02*
X0141833Y0055381D01*
X0141833Y0056179D02*
X0130333Y0056179D01*
X0130333Y0056978D02*
X0141833Y0056978D01*
X0141833Y0057776D02*
X0130333Y0057776D01*
X0130333Y0058575D02*
X0141833Y0058575D01*
X0141833Y0059373D02*
X0130333Y0059373D01*
X0130333Y0060172D02*
X0141833Y0060172D01*
X0141833Y0060970D02*
X0130333Y0060970D01*
X0130333Y0061769D02*
X0141833Y0061769D01*
X0141833Y0062567D02*
X0130333Y0062567D01*
X0130333Y0063366D02*
X0141833Y0063366D01*
X0141833Y0064164D02*
X0130333Y0064164D01*
X0130333Y0064963D02*
X0141833Y0064963D01*
X0141833Y0065761D02*
X0130333Y0065761D01*
X0130333Y0066560D02*
X0141833Y0066560D01*
X0141833Y0067358D02*
X0130333Y0067358D01*
X0130333Y0068157D02*
X0141833Y0068157D01*
X0141833Y0068955D02*
X0134549Y0068955D01*
X0134949Y0069754D02*
X0141833Y0069754D01*
X0141833Y0070552D02*
X0135093Y0070552D01*
X0134827Y0071351D02*
X0141833Y0071351D01*
X0141833Y0072149D02*
X0134793Y0072149D01*
X0135059Y0072948D02*
X0141175Y0072948D01*
X0140844Y0073746D02*
X0135000Y0073746D01*
X0135405Y0074545D02*
X0140783Y0074545D01*
X0140881Y0075343D02*
X0136204Y0075343D01*
X0136437Y0076142D02*
X0141212Y0076142D01*
X0141960Y0076940D02*
X0136437Y0076940D01*
X0135931Y0077739D02*
X0155338Y0077739D01*
X0155283Y0076940D02*
X0145706Y0076940D01*
X0146455Y0076142D02*
X0155387Y0076142D01*
X0155718Y0075343D02*
X0146785Y0075343D01*
X0146883Y0074545D02*
X0156333Y0074545D01*
X0156333Y0073746D02*
X0146822Y0073746D01*
X0146492Y0072948D02*
X0156333Y0072948D01*
X0156333Y0072149D02*
X0145833Y0072149D01*
X0145833Y0071351D02*
X0156333Y0071351D01*
X0156333Y0070552D02*
X0145833Y0070552D01*
X0145833Y0069754D02*
X0156333Y0069754D01*
X0156550Y0068955D02*
X0145833Y0068955D01*
X0145833Y0068157D02*
X0157348Y0068157D01*
X0158147Y0067358D02*
X0145833Y0067358D01*
X0145833Y0066560D02*
X0158945Y0066560D01*
X0160333Y0068000D02*
X0158333Y0070000D01*
X0158333Y0077000D01*
X0161383Y0076940D02*
X0182945Y0076940D01*
X0182147Y0076142D02*
X0161279Y0076142D01*
X0160948Y0075343D02*
X0181348Y0075343D01*
X0179714Y0074545D02*
X0160333Y0074545D01*
X0160333Y0073746D02*
X0178266Y0073746D01*
X0177632Y0072948D02*
X0160333Y0072948D01*
X0160333Y0072149D02*
X0177301Y0072149D01*
X0177283Y0071351D02*
X0160333Y0071351D01*
X0160609Y0070552D02*
X0177425Y0070552D01*
X0180333Y0071500D02*
X0183833Y0075000D01*
X0196333Y0075000D01*
X0198333Y0073000D01*
X0198333Y0050000D01*
X0194622Y0053784D02*
X0162045Y0053784D01*
X0162834Y0052985D02*
X0193833Y0052985D01*
X0193502Y0052187D02*
X0163164Y0052187D01*
X0163495Y0051388D02*
X0193172Y0051388D01*
X0193033Y0050590D02*
X0163633Y0050590D01*
X0163633Y0049791D02*
X0193033Y0049791D01*
X0193033Y0048993D02*
X0163633Y0048993D01*
X0163322Y0048194D02*
X0193345Y0048194D01*
X0193675Y0047396D02*
X0162991Y0047396D01*
X0154622Y0053784D02*
X0151762Y0053784D01*
X0152468Y0052985D02*
X0153833Y0052985D01*
X0153502Y0052187D02*
X0152943Y0052187D01*
X0150574Y0054582D02*
X0155546Y0054582D01*
X0161121Y0054582D02*
X0195546Y0054582D01*
X0196333Y0055381D02*
X0145833Y0055381D01*
X0145833Y0056179D02*
X0196333Y0056179D01*
X0196333Y0056978D02*
X0145833Y0056978D01*
X0145833Y0057776D02*
X0196333Y0057776D01*
X0196333Y0058575D02*
X0145833Y0058575D01*
X0145833Y0059373D02*
X0196333Y0059373D01*
X0196333Y0060172D02*
X0145833Y0060172D01*
X0145833Y0060970D02*
X0196333Y0060970D01*
X0196333Y0061769D02*
X0145833Y0061769D01*
X0145833Y0062567D02*
X0196333Y0062567D01*
X0196333Y0063366D02*
X0145833Y0063366D01*
X0145833Y0064164D02*
X0196333Y0064164D01*
X0196333Y0064963D02*
X0145833Y0064963D01*
X0145833Y0065761D02*
X0196333Y0065761D01*
X0196333Y0066560D02*
X0186222Y0066560D01*
X0187020Y0067358D02*
X0196333Y0067358D01*
X0196333Y0068157D02*
X0189304Y0068157D01*
X0189995Y0068955D02*
X0196333Y0068955D01*
X0196333Y0069754D02*
X0190326Y0069754D01*
X0190383Y0070552D02*
X0196333Y0070552D01*
X0195715Y0071351D02*
X0190282Y0071351D01*
X0189951Y0072149D02*
X0195384Y0072149D01*
X0195283Y0072948D02*
X0189199Y0072948D01*
X0187333Y0070500D02*
X0184833Y0068000D01*
X0160333Y0068000D01*
X0161329Y0077739D02*
X0166281Y0077739D01*
X0166606Y0077414D02*
X0167727Y0076950D01*
X0168940Y0076950D01*
X0170061Y0077414D01*
X0170919Y0078272D01*
X0171383Y0079393D01*
X0171383Y0080607D01*
X0170919Y0081728D01*
X0170333Y0082313D01*
X0170333Y0082616D01*
X0170961Y0083244D01*
X0171433Y0084383D01*
X0171433Y0085617D01*
X0170961Y0086756D01*
X0170089Y0087628D01*
X0168950Y0088100D01*
X0167717Y0088100D01*
X0166577Y0087628D01*
X0165705Y0086756D01*
X0165233Y0085617D01*
X0165233Y0084383D01*
X0165705Y0083244D01*
X0166333Y0082616D01*
X0166333Y0082313D01*
X0165748Y0081728D01*
X0165283Y0080607D01*
X0165283Y0079393D01*
X0165748Y0078272D01*
X0166606Y0077414D01*
X0165638Y0078537D02*
X0160998Y0078537D01*
X0160311Y0079336D02*
X0165307Y0079336D01*
X0165283Y0080134D02*
X0136437Y0080134D01*
X0136437Y0079480D02*
X0136437Y0079480D01*
X0136437Y0079480D01*
X0136293Y0079336D02*
X0156356Y0079336D01*
X0155669Y0078537D02*
X0135494Y0078537D01*
X0133736Y0079608D02*
X0130934Y0079608D01*
X0133736Y0082410D01*
X0130934Y0082410D01*
X0130233Y0081710D01*
X0130233Y0080308D01*
X0130934Y0079608D01*
X0130233Y0077806D02*
X0130233Y0075004D01*
X0130233Y0076405D02*
X0134437Y0076405D01*
X0133036Y0075004D01*
X0133036Y0073202D02*
X0130233Y0071801D01*
X0133036Y0070400D01*
X0131453Y0068955D02*
X0130333Y0068955D01*
X0143833Y0074500D02*
X0143833Y0053500D01*
X0140333Y0050000D01*
X0138207Y0052187D02*
X0135915Y0052187D01*
X0136408Y0051388D02*
X0137607Y0051388D01*
X0137283Y0050590D02*
X0136705Y0050590D01*
X0136705Y0049791D02*
X0137283Y0049791D01*
X0137449Y0048993D02*
X0136565Y0048993D01*
X0136235Y0048194D02*
X0137826Y0048194D01*
X0138651Y0047396D02*
X0135497Y0047396D01*
X0134937Y0052985D02*
X0139570Y0052985D01*
X0145833Y0054582D02*
X0146093Y0054582D01*
X0147933Y0054582D02*
X0148733Y0054582D01*
X0148733Y0053784D02*
X0147933Y0053784D01*
X0147933Y0052985D02*
X0148733Y0052985D01*
X0148733Y0052187D02*
X0147933Y0052187D01*
X0147933Y0051388D02*
X0148733Y0051388D01*
X0148733Y0050590D02*
X0147933Y0050590D01*
X0170386Y0077739D02*
X0226333Y0077739D01*
X0226333Y0078537D02*
X0209699Y0078537D01*
X0210498Y0079336D02*
X0226333Y0079336D01*
X0226333Y0080134D02*
X0211296Y0080134D01*
X0212095Y0080933D02*
X0226333Y0080933D01*
X0226333Y0081732D02*
X0212893Y0081732D01*
X0213692Y0082530D02*
X0226333Y0082530D01*
X0226333Y0083329D02*
X0214490Y0083329D01*
X0215289Y0084127D02*
X0226333Y0084127D01*
X0226333Y0084926D02*
X0216087Y0084926D01*
X0216886Y0085724D02*
X0226333Y0085724D01*
X0226333Y0086523D02*
X0217684Y0086523D01*
X0217833Y0087321D02*
X0226333Y0087321D01*
X0226333Y0088120D02*
X0217833Y0088120D01*
X0217833Y0088918D02*
X0226333Y0088918D01*
X0226333Y0089717D02*
X0217833Y0089717D01*
X0217833Y0090515D02*
X0226333Y0090515D01*
X0226333Y0091314D02*
X0217833Y0091314D01*
X0217833Y0092112D02*
X0226333Y0092112D01*
X0226333Y0092911D02*
X0217833Y0092911D01*
X0217833Y0093709D02*
X0226333Y0093709D01*
X0226333Y0094508D02*
X0217833Y0094508D01*
X0217833Y0095306D02*
X0226333Y0095306D01*
X0226333Y0096105D02*
X0217833Y0096105D01*
X0217833Y0096903D02*
X0226333Y0096903D01*
X0226333Y0097702D02*
X0217833Y0097702D01*
X0217833Y0098500D02*
X0226333Y0098500D01*
X0226333Y0099299D02*
X0217833Y0099299D01*
X0217833Y0100097D02*
X0226333Y0100097D01*
X0226333Y0100896D02*
X0217833Y0100896D01*
X0217833Y0101694D02*
X0226333Y0101694D01*
X0226333Y0102493D02*
X0217833Y0102493D01*
X0217833Y0103291D02*
X0226333Y0103291D01*
X0226333Y0104090D02*
X0217833Y0104090D01*
X0217833Y0104888D02*
X0226333Y0104888D01*
X0226333Y0105687D02*
X0217833Y0105687D01*
X0217833Y0106485D02*
X0226333Y0106485D01*
X0226333Y0107284D02*
X0217833Y0107284D01*
X0217833Y0108082D02*
X0226333Y0108082D01*
X0226333Y0108881D02*
X0217833Y0108881D01*
X0217833Y0109679D02*
X0226333Y0109679D01*
X0226333Y0110478D02*
X0217833Y0110478D01*
X0217833Y0111276D02*
X0226333Y0111276D01*
X0226333Y0112075D02*
X0217833Y0112075D01*
X0217833Y0112873D02*
X0226333Y0112873D01*
X0226333Y0113672D02*
X0217833Y0113672D01*
X0217833Y0114470D02*
X0221549Y0114470D01*
X0220751Y0115269D02*
X0217833Y0115269D01*
X0217833Y0116068D02*
X0220418Y0116068D01*
X0220283Y0116866D02*
X0217833Y0116866D01*
X0217833Y0117665D02*
X0220307Y0117665D01*
X0220638Y0118463D02*
X0217833Y0118463D01*
X0217833Y0119262D02*
X0221282Y0119262D01*
X0221333Y0120060D02*
X0217833Y0120060D01*
X0217833Y0120859D02*
X0221333Y0120859D01*
X0223333Y0123000D02*
X0221333Y0125000D01*
X0219833Y0125000D01*
X0222683Y0126478D02*
X0223333Y0125828D01*
X0225333Y0123828D01*
X0225333Y0119313D01*
X0225919Y0118728D01*
X0226333Y0117727D01*
X0226333Y0140000D01*
X0226276Y0140585D01*
X0225828Y0141667D01*
X0225000Y0142494D01*
X0223919Y0142942D01*
X0223333Y0143000D01*
X0213647Y0143000D01*
X0214419Y0142228D01*
X0214883Y0141107D01*
X0214883Y0139893D01*
X0214555Y0139100D01*
X0217746Y0139100D01*
X0218042Y0138804D01*
X0218043Y0138805D01*
X0218399Y0138900D01*
X0219608Y0138900D01*
X0219608Y0136788D01*
X0220058Y0136338D01*
X0220058Y0138900D01*
X0221268Y0138900D01*
X0221624Y0138805D01*
X0221943Y0138620D01*
X0222204Y0138360D01*
X0222388Y0138040D01*
X0222483Y0137684D01*
X0222483Y0135225D01*
X0220233Y0135225D01*
X0220233Y0134775D01*
X0222483Y0134775D01*
X0222483Y0132316D01*
X0222388Y0131960D01*
X0222204Y0131640D01*
X0221943Y0131380D01*
X0221624Y0131195D01*
X0221268Y0131100D01*
X0220058Y0131100D01*
X0220058Y0133662D01*
X0219608Y0133212D01*
X0219608Y0131100D01*
X0218399Y0131100D01*
X0218043Y0131195D01*
X0218042Y0131196D01*
X0217833Y0130987D01*
X0217833Y0129013D01*
X0217833Y0129013D01*
X0217921Y0129100D01*
X0221746Y0129100D01*
X0222683Y0128163D01*
X0222683Y0126478D01*
X0222714Y0126448D02*
X0226333Y0126448D01*
X0226333Y0125650D02*
X0223512Y0125650D01*
X0224311Y0124851D02*
X0226333Y0124851D01*
X0226333Y0124053D02*
X0225109Y0124053D01*
X0225333Y0123254D02*
X0226333Y0123254D01*
X0226333Y0122456D02*
X0225333Y0122456D01*
X0225333Y0121657D02*
X0226333Y0121657D01*
X0226333Y0120859D02*
X0225333Y0120859D01*
X0225333Y0120060D02*
X0226333Y0120060D01*
X0226333Y0119262D02*
X0225385Y0119262D01*
X0226029Y0118463D02*
X0226333Y0118463D01*
X0226333Y0116068D02*
X0226248Y0116068D01*
X0226333Y0115269D02*
X0225916Y0115269D01*
X0226333Y0114470D02*
X0225117Y0114470D01*
X0223333Y0117000D02*
X0223333Y0123000D01*
X0215833Y0125000D02*
X0215833Y0087500D01*
X0208333Y0080000D01*
X0193333Y0080000D01*
X0188333Y0085000D01*
X0183333Y0085000D01*
X0180283Y0084926D02*
X0171433Y0084926D01*
X0171389Y0085724D02*
X0180332Y0085724D01*
X0180663Y0086523D02*
X0171058Y0086523D01*
X0170396Y0087321D02*
X0181341Y0087321D01*
X0180394Y0084127D02*
X0171327Y0084127D01*
X0170996Y0083329D02*
X0180724Y0083329D01*
X0181490Y0082530D02*
X0170333Y0082530D01*
X0170915Y0081732D02*
X0188773Y0081732D01*
X0187975Y0082530D02*
X0185177Y0082530D01*
X0189572Y0080933D02*
X0171248Y0080933D01*
X0171383Y0080134D02*
X0190370Y0080134D01*
X0191169Y0079336D02*
X0171360Y0079336D01*
X0171029Y0078537D02*
X0191967Y0078537D01*
X0197221Y0076940D02*
X0226333Y0076940D01*
X0226333Y0076142D02*
X0198020Y0076142D01*
X0200303Y0075343D02*
X0226333Y0075343D01*
X0226333Y0074545D02*
X0200995Y0074545D01*
X0201325Y0073746D02*
X0226333Y0073746D01*
X0226333Y0072948D02*
X0201383Y0072948D01*
X0201282Y0072149D02*
X0226333Y0072149D01*
X0226333Y0071351D02*
X0200952Y0071351D01*
X0200333Y0070552D02*
X0226333Y0070552D01*
X0226333Y0069754D02*
X0200333Y0069754D01*
X0200333Y0068955D02*
X0226333Y0068955D01*
X0226333Y0068157D02*
X0200333Y0068157D01*
X0200333Y0067358D02*
X0212661Y0067358D01*
X0211895Y0066560D02*
X0200333Y0066560D01*
X0200333Y0065761D02*
X0211564Y0065761D01*
X0211483Y0064963D02*
X0200333Y0064963D01*
X0200333Y0064164D02*
X0211595Y0064164D01*
X0211937Y0063366D02*
X0200333Y0063366D01*
X0200333Y0062567D02*
X0201234Y0062567D01*
X0200494Y0061769D02*
X0200333Y0061769D01*
X0205433Y0062567D02*
X0212759Y0062567D01*
X0215908Y0062567D02*
X0216587Y0062567D01*
X0216730Y0063366D02*
X0226333Y0063366D01*
X0226333Y0064164D02*
X0217072Y0064164D01*
X0217183Y0064963D02*
X0226333Y0064963D01*
X0226333Y0065761D02*
X0217103Y0065761D01*
X0216772Y0066560D02*
X0226333Y0066560D01*
X0226333Y0067358D02*
X0216005Y0067358D01*
X0220079Y0062567D02*
X0226333Y0062567D01*
X0226333Y0061769D02*
X0220878Y0061769D01*
X0221233Y0060970D02*
X0226333Y0060970D01*
X0226333Y0060172D02*
X0221383Y0060172D01*
X0221375Y0059373D02*
X0226333Y0059373D01*
X0226333Y0058575D02*
X0221044Y0058575D01*
X0220423Y0057776D02*
X0226333Y0057776D01*
X0226333Y0056978D02*
X0219007Y0056978D01*
X0217660Y0056978D02*
X0204660Y0056978D01*
X0205546Y0054582D02*
X0201121Y0054582D01*
X0200333Y0055381D02*
X0226333Y0055381D01*
X0226333Y0056179D02*
X0200333Y0056179D01*
X0200333Y0056978D02*
X0202007Y0056978D01*
X0200890Y0057776D02*
X0200333Y0057776D01*
X0200333Y0058575D02*
X0200352Y0058575D01*
X0202045Y0053784D02*
X0204622Y0053784D01*
X0203833Y0052985D02*
X0202834Y0052985D01*
X0203164Y0052187D02*
X0203502Y0052187D01*
X0211121Y0054582D02*
X0226333Y0054582D01*
X0226333Y0053784D02*
X0212045Y0053784D01*
X0212834Y0052985D02*
X0221730Y0052985D01*
X0220752Y0052187D02*
X0213164Y0052187D01*
X0213495Y0051388D02*
X0220259Y0051388D01*
X0219962Y0050590D02*
X0213633Y0050590D01*
X0213633Y0049791D02*
X0219962Y0049791D01*
X0220101Y0048993D02*
X0213633Y0048993D01*
X0213322Y0048194D02*
X0220432Y0048194D01*
X0221170Y0047396D02*
X0212991Y0047396D01*
X0224937Y0052985D02*
X0226333Y0052985D01*
X0226333Y0052187D02*
X0225915Y0052187D01*
X0207505Y0082000D02*
X0198147Y0082000D01*
X0198419Y0082272D01*
X0198883Y0083393D01*
X0198883Y0084607D01*
X0198419Y0085728D01*
X0197833Y0086313D01*
X0197833Y0106328D01*
X0196662Y0107500D01*
X0173383Y0130778D01*
X0173383Y0131607D01*
X0172919Y0132728D01*
X0172404Y0133242D01*
X0174162Y0135000D01*
X0205505Y0135000D01*
X0206333Y0134172D01*
X0206333Y0125672D01*
X0208983Y0123022D01*
X0208983Y0121837D01*
X0209921Y0120900D01*
X0213746Y0120900D01*
X0213833Y0120987D01*
X0213833Y0088328D01*
X0211304Y0085799D01*
X0210919Y0086728D01*
X0210333Y0087313D01*
X0210333Y0107328D01*
X0205701Y0111961D01*
X0205727Y0111950D01*
X0206940Y0111950D01*
X0208061Y0112414D01*
X0208919Y0113272D01*
X0209383Y0114393D01*
X0209383Y0115607D01*
X0208919Y0116728D01*
X0208061Y0117586D01*
X0206940Y0118050D01*
X0206112Y0118050D01*
X0205333Y0118828D01*
X0205333Y0121187D01*
X0205919Y0121772D01*
X0206383Y0122893D01*
X0206383Y0124107D01*
X0205919Y0125228D01*
X0205061Y0126086D01*
X0203940Y0126550D01*
X0202727Y0126550D01*
X0201606Y0126086D01*
X0201554Y0126034D01*
X0201192Y0126910D01*
X0200243Y0127858D01*
X0199004Y0128372D01*
X0197663Y0128372D01*
X0196423Y0127858D01*
X0195475Y0126910D01*
X0194962Y0125671D01*
X0194962Y0124329D01*
X0195475Y0123090D01*
X0196423Y0122142D01*
X0197663Y0121628D01*
X0199004Y0121628D01*
X0200243Y0122142D01*
X0200492Y0122390D01*
X0200748Y0121772D01*
X0201333Y0121187D01*
X0201333Y0117172D01*
X0202505Y0116000D01*
X0203283Y0115222D01*
X0203283Y0114393D01*
X0203294Y0114368D01*
X0186383Y0131278D01*
X0186383Y0132107D01*
X0185919Y0133228D01*
X0185061Y0134086D01*
X0183940Y0134550D01*
X0182727Y0134550D01*
X0181606Y0134086D01*
X0180748Y0133228D01*
X0180283Y0132107D01*
X0180283Y0130893D01*
X0180748Y0129772D01*
X0181606Y0128914D01*
X0182727Y0128450D01*
X0183555Y0128450D01*
X0206333Y0105672D01*
X0206333Y0087313D01*
X0205748Y0086728D01*
X0205283Y0085607D01*
X0205283Y0084393D01*
X0205748Y0083272D01*
X0206606Y0082414D01*
X0207535Y0082030D01*
X0207505Y0082000D01*
X0206490Y0082530D02*
X0198526Y0082530D01*
X0198856Y0083329D02*
X0205724Y0083329D01*
X0205394Y0084127D02*
X0198883Y0084127D01*
X0198751Y0084926D02*
X0205283Y0084926D01*
X0205332Y0085724D02*
X0198420Y0085724D01*
X0197833Y0086523D02*
X0205663Y0086523D01*
X0206333Y0087321D02*
X0197833Y0087321D01*
X0197833Y0088120D02*
X0206333Y0088120D01*
X0206333Y0088918D02*
X0197833Y0088918D01*
X0197833Y0089717D02*
X0206333Y0089717D01*
X0206333Y0090515D02*
X0197833Y0090515D01*
X0197833Y0091314D02*
X0206333Y0091314D01*
X0206333Y0092112D02*
X0197833Y0092112D01*
X0197833Y0092911D02*
X0206333Y0092911D01*
X0206333Y0093709D02*
X0197833Y0093709D01*
X0197833Y0094508D02*
X0206333Y0094508D01*
X0206333Y0095306D02*
X0197833Y0095306D01*
X0197833Y0096105D02*
X0206333Y0096105D01*
X0206333Y0096903D02*
X0197833Y0096903D01*
X0197833Y0097702D02*
X0206333Y0097702D01*
X0206333Y0098500D02*
X0197833Y0098500D01*
X0197833Y0099299D02*
X0206333Y0099299D01*
X0206333Y0100097D02*
X0197833Y0100097D01*
X0197833Y0100896D02*
X0206333Y0100896D01*
X0206333Y0101694D02*
X0197833Y0101694D01*
X0197833Y0102493D02*
X0206333Y0102493D01*
X0206333Y0103291D02*
X0197833Y0103291D01*
X0197833Y0104090D02*
X0206333Y0104090D01*
X0206333Y0104888D02*
X0197833Y0104888D01*
X0197833Y0105687D02*
X0206318Y0105687D01*
X0205520Y0106485D02*
X0197676Y0106485D01*
X0196878Y0107284D02*
X0204721Y0107284D01*
X0203923Y0108082D02*
X0196079Y0108082D01*
X0195281Y0108881D02*
X0203124Y0108881D01*
X0202325Y0109679D02*
X0194482Y0109679D01*
X0193684Y0110478D02*
X0201527Y0110478D01*
X0200728Y0111276D02*
X0192885Y0111276D01*
X0192087Y0112075D02*
X0199930Y0112075D01*
X0199131Y0112873D02*
X0191288Y0112873D01*
X0190490Y0113672D02*
X0198333Y0113672D01*
X0197534Y0114470D02*
X0189691Y0114470D01*
X0188893Y0115269D02*
X0196736Y0115269D01*
X0195937Y0116068D02*
X0188094Y0116068D01*
X0187296Y0116866D02*
X0195139Y0116866D01*
X0194340Y0117665D02*
X0186497Y0117665D01*
X0185699Y0118463D02*
X0193542Y0118463D01*
X0192743Y0119262D02*
X0184900Y0119262D01*
X0184102Y0120060D02*
X0191945Y0120060D01*
X0191146Y0120859D02*
X0183303Y0120859D01*
X0182505Y0121657D02*
X0190348Y0121657D01*
X0189549Y0122456D02*
X0181706Y0122456D01*
X0180908Y0123254D02*
X0188751Y0123254D01*
X0187952Y0124053D02*
X0180109Y0124053D01*
X0179311Y0124851D02*
X0187154Y0124851D01*
X0186355Y0125650D02*
X0178512Y0125650D01*
X0177714Y0126448D02*
X0185557Y0126448D01*
X0184758Y0127247D02*
X0176915Y0127247D01*
X0176117Y0128045D02*
X0183960Y0128045D01*
X0181776Y0128844D02*
X0175318Y0128844D01*
X0174520Y0129642D02*
X0180878Y0129642D01*
X0180471Y0130441D02*
X0173721Y0130441D01*
X0173383Y0131239D02*
X0180283Y0131239D01*
X0180283Y0132038D02*
X0173205Y0132038D01*
X0172810Y0132836D02*
X0180586Y0132836D01*
X0181155Y0133635D02*
X0172796Y0133635D01*
X0173595Y0134433D02*
X0182445Y0134433D01*
X0184222Y0134433D02*
X0206072Y0134433D01*
X0206333Y0133635D02*
X0185512Y0133635D01*
X0186081Y0132836D02*
X0206333Y0132836D01*
X0206333Y0132038D02*
X0186383Y0132038D01*
X0186423Y0131239D02*
X0206333Y0131239D01*
X0206333Y0130441D02*
X0187221Y0130441D01*
X0188020Y0129642D02*
X0206333Y0129642D01*
X0206333Y0128844D02*
X0188818Y0128844D01*
X0189617Y0128045D02*
X0196875Y0128045D01*
X0195812Y0127247D02*
X0190415Y0127247D01*
X0191214Y0126448D02*
X0195284Y0126448D01*
X0194962Y0125650D02*
X0192012Y0125650D01*
X0192811Y0124851D02*
X0194962Y0124851D01*
X0195076Y0124053D02*
X0193609Y0124053D01*
X0194408Y0123254D02*
X0195407Y0123254D01*
X0195206Y0122456D02*
X0196109Y0122456D01*
X0196005Y0121657D02*
X0197593Y0121657D01*
X0196803Y0120859D02*
X0201333Y0120859D01*
X0201333Y0120060D02*
X0197602Y0120060D01*
X0198400Y0119262D02*
X0201333Y0119262D01*
X0201333Y0118463D02*
X0199199Y0118463D01*
X0199997Y0117665D02*
X0201333Y0117665D01*
X0201639Y0116866D02*
X0200796Y0116866D01*
X0201594Y0116068D02*
X0202437Y0116068D01*
X0202393Y0115269D02*
X0203236Y0115269D01*
X0203191Y0114470D02*
X0203283Y0114470D01*
X0206333Y0115000D02*
X0203333Y0118000D01*
X0203333Y0123500D01*
X0205497Y0125650D02*
X0206355Y0125650D01*
X0206333Y0126448D02*
X0204186Y0126448D01*
X0202481Y0126448D02*
X0201383Y0126448D01*
X0200855Y0127247D02*
X0206333Y0127247D01*
X0206333Y0128045D02*
X0199792Y0128045D01*
X0206075Y0124851D02*
X0207154Y0124851D01*
X0206383Y0124053D02*
X0207952Y0124053D01*
X0208751Y0123254D02*
X0206383Y0123254D01*
X0206202Y0122456D02*
X0208983Y0122456D01*
X0209163Y0121657D02*
X0205804Y0121657D01*
X0205333Y0120859D02*
X0213833Y0120859D01*
X0213833Y0120060D02*
X0205333Y0120060D01*
X0205333Y0119262D02*
X0213833Y0119262D01*
X0213833Y0118463D02*
X0205699Y0118463D01*
X0207871Y0117665D02*
X0213833Y0117665D01*
X0213833Y0116866D02*
X0208781Y0116866D01*
X0209192Y0116068D02*
X0213833Y0116068D01*
X0213833Y0115269D02*
X0209383Y0115269D01*
X0209383Y0114470D02*
X0213833Y0114470D01*
X0213833Y0113672D02*
X0209085Y0113672D01*
X0208520Y0112873D02*
X0213833Y0112873D01*
X0213833Y0112075D02*
X0207242Y0112075D01*
X0206385Y0111276D02*
X0213833Y0111276D01*
X0213833Y0110478D02*
X0207184Y0110478D01*
X0207982Y0109679D02*
X0213833Y0109679D01*
X0213833Y0108881D02*
X0208781Y0108881D01*
X0209579Y0108082D02*
X0213833Y0108082D01*
X0213833Y0107284D02*
X0210333Y0107284D01*
X0210333Y0106485D02*
X0213833Y0106485D01*
X0213833Y0105687D02*
X0210333Y0105687D01*
X0210333Y0104888D02*
X0213833Y0104888D01*
X0213833Y0104090D02*
X0210333Y0104090D01*
X0210333Y0103291D02*
X0213833Y0103291D01*
X0213833Y0102493D02*
X0210333Y0102493D01*
X0210333Y0101694D02*
X0213833Y0101694D01*
X0213833Y0100896D02*
X0210333Y0100896D01*
X0210333Y0100097D02*
X0213833Y0100097D01*
X0213833Y0099299D02*
X0210333Y0099299D01*
X0210333Y0098500D02*
X0213833Y0098500D01*
X0213833Y0097702D02*
X0210333Y0097702D01*
X0210333Y0096903D02*
X0213833Y0096903D01*
X0213833Y0096105D02*
X0210333Y0096105D01*
X0210333Y0095306D02*
X0213833Y0095306D01*
X0213833Y0094508D02*
X0210333Y0094508D01*
X0210333Y0093709D02*
X0213833Y0093709D01*
X0213833Y0092911D02*
X0210333Y0092911D01*
X0210333Y0092112D02*
X0213833Y0092112D01*
X0213833Y0091314D02*
X0210333Y0091314D01*
X0210333Y0090515D02*
X0213833Y0090515D01*
X0213833Y0089717D02*
X0210333Y0089717D01*
X0210333Y0088918D02*
X0213833Y0088918D01*
X0213625Y0088120D02*
X0210333Y0088120D01*
X0210333Y0087321D02*
X0212826Y0087321D01*
X0212028Y0086523D02*
X0211004Y0086523D01*
X0208333Y0085000D02*
X0208333Y0106500D01*
X0183333Y0131500D01*
X0173333Y0137000D02*
X0206333Y0137000D01*
X0208333Y0135000D01*
X0208333Y0126500D01*
X0209833Y0125000D01*
X0211833Y0125000D01*
X0215833Y0125000D02*
X0215833Y0135000D01*
X0211833Y0135000D02*
X0211833Y0140500D01*
X0208996Y0141620D02*
X0135744Y0141620D01*
X0135749Y0141614D02*
X0134948Y0142416D01*
X0133900Y0142850D01*
X0132766Y0142850D01*
X0131719Y0142416D01*
X0130917Y0141614D01*
X0130483Y0140567D01*
X0130483Y0139433D01*
X0130917Y0138386D01*
X0131719Y0137584D01*
X0132766Y0137150D01*
X0133900Y0137150D01*
X0134948Y0137584D01*
X0135749Y0138386D01*
X0136183Y0139433D01*
X0136183Y0140567D01*
X0135749Y0141614D01*
X0136078Y0140821D02*
X0208783Y0140821D01*
X0208783Y0140023D02*
X0136183Y0140023D01*
X0136097Y0139224D02*
X0209060Y0139224D01*
X0209246Y0138426D02*
X0207736Y0138426D01*
X0208534Y0137627D02*
X0208983Y0137627D01*
X0214606Y0139224D02*
X0226333Y0139224D01*
X0226333Y0138426D02*
X0222137Y0138426D01*
X0222483Y0137627D02*
X0226333Y0137627D01*
X0226333Y0136829D02*
X0222483Y0136829D01*
X0222483Y0136030D02*
X0226333Y0136030D01*
X0226333Y0135232D02*
X0222483Y0135232D01*
X0222483Y0134433D02*
X0226333Y0134433D01*
X0226333Y0133635D02*
X0222483Y0133635D01*
X0222483Y0132836D02*
X0226333Y0132836D01*
X0226333Y0132038D02*
X0222409Y0132038D01*
X0221700Y0131239D02*
X0226333Y0131239D01*
X0226333Y0130441D02*
X0217833Y0130441D01*
X0217833Y0129642D02*
X0226333Y0129642D01*
X0226333Y0128844D02*
X0222002Y0128844D01*
X0222683Y0128045D02*
X0226333Y0128045D01*
X0226333Y0127247D02*
X0222683Y0127247D01*
X0220058Y0131239D02*
X0219608Y0131239D01*
X0219608Y0132038D02*
X0220058Y0132038D01*
X0220058Y0132836D02*
X0219608Y0132836D01*
X0220031Y0133635D02*
X0220058Y0133635D01*
X0220058Y0136829D02*
X0219608Y0136829D01*
X0219608Y0137627D02*
X0220058Y0137627D01*
X0220058Y0138426D02*
X0219608Y0138426D01*
X0214883Y0140023D02*
X0226331Y0140023D01*
X0226178Y0140821D02*
X0214883Y0140821D01*
X0214671Y0141620D02*
X0225847Y0141620D01*
X0225076Y0142418D02*
X0214228Y0142418D01*
X0209438Y0142418D02*
X0134942Y0142418D01*
X0131724Y0142418D02*
X0131591Y0142418D01*
X0130923Y0141620D02*
X0130820Y0141620D01*
X0130589Y0140821D02*
X0130489Y0140821D01*
X0130483Y0140023D02*
X0130336Y0140023D01*
X0130333Y0139224D02*
X0130570Y0139224D01*
X0130333Y0138426D02*
X0130901Y0138426D01*
X0130333Y0137627D02*
X0131676Y0137627D01*
X0130333Y0136829D02*
X0170334Y0136829D01*
X0171132Y0137627D02*
X0134991Y0137627D01*
X0135766Y0138426D02*
X0171931Y0138426D01*
X0173333Y0137000D02*
X0170333Y0134000D01*
X0170333Y0131000D01*
X0195833Y0105500D01*
X0195833Y0084000D01*
X0192783Y0084127D02*
X0192035Y0084127D01*
X0191236Y0084926D02*
X0192915Y0084926D01*
X0193246Y0085724D02*
X0190438Y0085724D01*
X0190333Y0085828D02*
X0190333Y0085828D01*
X0189639Y0086523D02*
X0193833Y0086523D01*
X0193833Y0087321D02*
X0185326Y0087321D01*
X0193833Y0088120D02*
X0160766Y0088120D01*
X0160919Y0088272D02*
X0161383Y0089393D01*
X0161383Y0090607D01*
X0160919Y0091728D01*
X0160061Y0092586D01*
X0158940Y0093050D01*
X0157727Y0093050D01*
X0156606Y0092586D01*
X0155748Y0091728D01*
X0155283Y0090607D01*
X0155283Y0089393D01*
X0155748Y0088272D01*
X0156333Y0087687D01*
X0156333Y0087384D01*
X0155705Y0086756D01*
X0155233Y0085617D01*
X0155233Y0084383D01*
X0155705Y0083244D01*
X0156577Y0082372D01*
X0157717Y0081900D01*
X0158950Y0081900D01*
X0160089Y0082372D01*
X0160961Y0083244D01*
X0161433Y0084383D01*
X0161433Y0085617D01*
X0160961Y0086756D01*
X0160333Y0087384D01*
X0160333Y0087687D01*
X0160919Y0088272D01*
X0161186Y0088918D02*
X0193833Y0088918D01*
X0193833Y0089717D02*
X0161383Y0089717D01*
X0161383Y0090515D02*
X0193833Y0090515D01*
X0193833Y0091314D02*
X0161090Y0091314D01*
X0160534Y0092112D02*
X0193833Y0092112D01*
X0193833Y0092911D02*
X0159276Y0092911D01*
X0157390Y0092911D02*
X0130333Y0092911D01*
X0130333Y0093709D02*
X0193833Y0093709D01*
X0193833Y0094508D02*
X0130333Y0094508D01*
X0130333Y0095306D02*
X0193833Y0095306D01*
X0193833Y0096105D02*
X0130333Y0096105D01*
X0130333Y0096903D02*
X0193833Y0096903D01*
X0193833Y0097702D02*
X0130333Y0097702D01*
X0130333Y0098500D02*
X0193833Y0098500D01*
X0193833Y0099299D02*
X0130333Y0099299D01*
X0130333Y0100097D02*
X0193833Y0100097D01*
X0193833Y0100896D02*
X0130333Y0100896D01*
X0130333Y0101694D02*
X0193833Y0101694D01*
X0193833Y0102493D02*
X0130333Y0102493D01*
X0130333Y0103291D02*
X0193833Y0103291D01*
X0193833Y0104090D02*
X0130333Y0104090D01*
X0130333Y0104888D02*
X0193617Y0104888D01*
X0192818Y0105687D02*
X0130333Y0105687D01*
X0130333Y0106485D02*
X0192020Y0106485D01*
X0191221Y0107284D02*
X0130333Y0107284D01*
X0130333Y0108082D02*
X0190423Y0108082D01*
X0189624Y0108881D02*
X0130333Y0108881D01*
X0130333Y0109679D02*
X0188825Y0109679D01*
X0188027Y0110478D02*
X0130333Y0110478D01*
X0130333Y0111276D02*
X0187228Y0111276D01*
X0186430Y0112075D02*
X0130333Y0112075D01*
X0130333Y0112873D02*
X0185631Y0112873D01*
X0184833Y0113672D02*
X0130333Y0113672D01*
X0130333Y0114470D02*
X0184034Y0114470D01*
X0183236Y0115269D02*
X0130333Y0115269D01*
X0130333Y0116068D02*
X0182437Y0116068D01*
X0181639Y0116866D02*
X0130333Y0116866D01*
X0130333Y0117665D02*
X0180840Y0117665D01*
X0180042Y0118463D02*
X0130333Y0118463D01*
X0130333Y0119262D02*
X0179243Y0119262D01*
X0178445Y0120060D02*
X0130333Y0120060D01*
X0130333Y0120859D02*
X0177646Y0120859D01*
X0176848Y0121657D02*
X0159073Y0121657D01*
X0159004Y0121628D02*
X0160243Y0122142D01*
X0161192Y0123090D01*
X0161705Y0124329D01*
X0161705Y0125671D01*
X0161192Y0126910D01*
X0160243Y0127858D01*
X0159004Y0128372D01*
X0157663Y0128372D01*
X0156423Y0127858D01*
X0155475Y0126910D01*
X0154962Y0125671D01*
X0154962Y0124329D01*
X0155475Y0123090D01*
X0156423Y0122142D01*
X0157663Y0121628D01*
X0159004Y0121628D01*
X0157593Y0121657D02*
X0130333Y0121657D01*
X0130333Y0122456D02*
X0156109Y0122456D01*
X0155407Y0123254D02*
X0130333Y0123254D01*
X0130333Y0124053D02*
X0155076Y0124053D01*
X0154962Y0124851D02*
X0130333Y0124851D01*
X0130333Y0125650D02*
X0154962Y0125650D01*
X0155284Y0126448D02*
X0130333Y0126448D01*
X0130333Y0127247D02*
X0155812Y0127247D01*
X0156875Y0128045D02*
X0130333Y0128045D01*
X0130333Y0128844D02*
X0168176Y0128844D01*
X0167594Y0129642D02*
X0130333Y0129642D01*
X0130333Y0130441D02*
X0167283Y0130441D01*
X0167283Y0131239D02*
X0130333Y0131239D01*
X0130333Y0132038D02*
X0167462Y0132038D01*
X0167856Y0132836D02*
X0130333Y0132836D01*
X0130333Y0133635D02*
X0168333Y0133635D01*
X0168333Y0134433D02*
X0130333Y0134433D01*
X0130333Y0135232D02*
X0168737Y0135232D01*
X0169535Y0136030D02*
X0130333Y0136030D01*
X0159792Y0128045D02*
X0169497Y0128045D01*
X0171258Y0127247D02*
X0160855Y0127247D01*
X0161383Y0126448D02*
X0172057Y0126448D01*
X0172855Y0125650D02*
X0161705Y0125650D01*
X0161705Y0124851D02*
X0173654Y0124851D01*
X0174452Y0124053D02*
X0161590Y0124053D01*
X0161260Y0123254D02*
X0175251Y0123254D01*
X0176049Y0122456D02*
X0160557Y0122456D01*
X0199073Y0121657D02*
X0200863Y0121657D01*
X0156132Y0092112D02*
X0130333Y0092112D01*
X0130333Y0091314D02*
X0155576Y0091314D01*
X0155283Y0090515D02*
X0130333Y0090515D01*
X0130333Y0089717D02*
X0155283Y0089717D01*
X0155480Y0088918D02*
X0130333Y0088918D01*
X0130333Y0088120D02*
X0155900Y0088120D01*
X0156270Y0087321D02*
X0130333Y0087321D01*
X0130333Y0086523D02*
X0155609Y0086523D01*
X0155278Y0085724D02*
X0130333Y0085724D01*
X0130333Y0084926D02*
X0155233Y0084926D01*
X0155339Y0084127D02*
X0134848Y0084127D01*
X0135265Y0083710D02*
X0135265Y0083710D01*
X0135646Y0083329D02*
X0155670Y0083329D01*
X0156419Y0082530D02*
X0136437Y0082530D01*
X0136437Y0082538D02*
X0136437Y0082538D01*
X0136437Y0081732D02*
X0165752Y0081732D01*
X0165419Y0080933D02*
X0136437Y0080933D01*
X0136437Y0080881D02*
X0136437Y0080881D01*
X0136437Y0081137D02*
X0136437Y0081137D01*
X0134437Y0081710D02*
X0133736Y0082410D01*
X0134437Y0081710D02*
X0134437Y0080308D01*
X0133736Y0079608D01*
X0158333Y0085000D02*
X0158333Y0090000D01*
X0160396Y0087321D02*
X0166270Y0087321D01*
X0165609Y0086523D02*
X0161058Y0086523D01*
X0161389Y0085724D02*
X0165278Y0085724D01*
X0165233Y0084926D02*
X0161433Y0084926D01*
X0161327Y0084127D02*
X0165339Y0084127D01*
X0165670Y0083329D02*
X0160996Y0083329D01*
X0160247Y0082530D02*
X0166333Y0082530D01*
X0168333Y0085000D02*
X0168333Y0080000D01*
D11*
X0178333Y0158750D03*
D12*
X0211833Y0135000D03*
X0215833Y0135000D03*
X0219833Y0135000D03*
X0219833Y0125000D03*
X0215833Y0125000D03*
X0211833Y0125000D03*
D13*
X0217833Y0135000D03*
D14*
X0208333Y0050000D03*
X0198333Y0050000D03*
X0158333Y0050000D03*
X0148333Y0050000D03*
D15*
X0214333Y0065000D03*
X0133333Y0140000D03*
D16*
X0158333Y0085000D03*
X0168333Y0085000D03*
D17*
X0203333Y0060000D03*
D18*
X0218333Y0060000D03*
X0203333Y0069000D03*
X0198333Y0073000D03*
X0187333Y0070500D03*
X0180333Y0071500D03*
X0168333Y0065000D03*
X0158333Y0077000D03*
X0168333Y0080000D03*
X0179833Y0082000D03*
X0183333Y0085000D03*
X0193333Y0092000D03*
X0195833Y0084000D03*
X0208333Y0085000D03*
X0163333Y0091500D03*
X0158333Y0090000D03*
X0138333Y0079000D03*
X0143833Y0074500D03*
X0131333Y0060000D03*
X0140333Y0050000D03*
X0133333Y0115000D03*
X0170333Y0131000D03*
X0183333Y0131500D03*
X0193333Y0126000D03*
X0203333Y0123500D03*
X0206333Y0115000D03*
X0211833Y0115000D03*
X0219333Y0115000D03*
X0223333Y0117000D03*
X0203833Y0133500D03*
X0211833Y0140500D03*
X0220333Y0141500D03*
D19*
X0218333Y0060000D02*
X0203333Y0060000D01*
M02*
