G75*
%MOIN*%
%OFA0B0*%
%FSLAX25Y25*%
%IPPOS*%
%LPD*%
%AMOC8*
5,1,8,0,0,1.08239X$1,22.5*
%
%ADD10C,0.04343*%
%ADD11C,0.03556*%
%ADD12R,0.03300X0.05800*%
%ADD13C,0.00500*%
%ADD14C,0.08200*%
%ADD15C,0.03300*%
%ADD16C,0.03800*%
D10*
X0033400Y0033400D03*
X0123400Y0033400D03*
X0135400Y0033400D03*
X0225400Y0033400D03*
X0237400Y0033400D03*
X0327400Y0033400D03*
X0339400Y0033400D03*
X0429400Y0033400D03*
X0441400Y0033400D03*
X0531400Y0033400D03*
X0543400Y0033400D03*
X0633400Y0033400D03*
X0645400Y0033400D03*
X0735400Y0033400D03*
X0747400Y0033400D03*
X0837400Y0033400D03*
X0849400Y0033400D03*
X0939400Y0033400D03*
X0914400Y0108400D03*
X0874400Y0108400D03*
X0812400Y0108400D03*
X0772400Y0108400D03*
X0710400Y0108400D03*
X0670400Y0108400D03*
X0608400Y0108400D03*
X0568400Y0108400D03*
X0506400Y0108400D03*
X0466400Y0108400D03*
X0404400Y0108400D03*
X0364400Y0108400D03*
X0302400Y0108400D03*
X0262400Y0108400D03*
X0200400Y0108400D03*
X0160400Y0108400D03*
X0098400Y0108400D03*
X0058400Y0108400D03*
X0033400Y0172400D03*
X0123400Y0172400D03*
X0135400Y0172400D03*
X0225400Y0172400D03*
X0237400Y0172400D03*
X0327400Y0172400D03*
X0339400Y0172400D03*
X0429400Y0172400D03*
X0441400Y0172400D03*
X0531400Y0172400D03*
X0543400Y0172400D03*
X0633400Y0172400D03*
X0645400Y0172400D03*
X0735400Y0172400D03*
X0747400Y0172400D03*
X0837400Y0172400D03*
X0849400Y0172400D03*
X0939400Y0172400D03*
X0914400Y0247400D03*
X0874400Y0247400D03*
X0812400Y0247400D03*
X0772400Y0247400D03*
X0710400Y0247400D03*
X0670400Y0247400D03*
X0608400Y0247400D03*
X0568400Y0247400D03*
X0506400Y0247400D03*
X0466400Y0247400D03*
X0404400Y0247400D03*
X0364400Y0247400D03*
X0302400Y0247400D03*
X0262400Y0247400D03*
X0200400Y0247400D03*
X0160400Y0247400D03*
X0098400Y0247400D03*
X0058400Y0247400D03*
X0033400Y0311400D03*
X0123400Y0311400D03*
X0135400Y0311400D03*
X0225400Y0311400D03*
X0237400Y0311400D03*
X0327400Y0311400D03*
X0339400Y0311400D03*
X0429400Y0311400D03*
X0441400Y0311400D03*
X0531400Y0311400D03*
X0543400Y0311400D03*
X0633400Y0311400D03*
X0645400Y0311400D03*
X0735400Y0311400D03*
X0747400Y0311400D03*
X0837400Y0311400D03*
X0849400Y0311400D03*
X0939400Y0311400D03*
X0914400Y0386400D03*
X0874400Y0386400D03*
X0812400Y0386400D03*
X0772400Y0386400D03*
X0710400Y0386400D03*
X0670400Y0386400D03*
X0608400Y0386400D03*
X0568400Y0386400D03*
X0506400Y0386400D03*
X0466400Y0386400D03*
X0404400Y0386400D03*
X0364400Y0386400D03*
X0302400Y0386400D03*
X0262400Y0386400D03*
X0200400Y0386400D03*
X0160400Y0386400D03*
X0098400Y0386400D03*
X0058400Y0386400D03*
D11*
X0058400Y0423400D03*
X0098400Y0423400D03*
X0160400Y0423400D03*
X0200400Y0423400D03*
X0262400Y0423400D03*
X0302400Y0423400D03*
X0364400Y0423400D03*
X0404400Y0423400D03*
X0466400Y0423400D03*
X0506400Y0423400D03*
X0568400Y0423400D03*
X0608400Y0423400D03*
X0670400Y0423400D03*
X0710400Y0423400D03*
X0772400Y0423400D03*
X0812400Y0423400D03*
X0874400Y0423400D03*
X0914400Y0423400D03*
X0914400Y0284400D03*
X0874400Y0284400D03*
X0812400Y0284400D03*
X0772400Y0284400D03*
X0710400Y0284400D03*
X0670400Y0284400D03*
X0608400Y0284400D03*
X0568400Y0284400D03*
X0506400Y0284400D03*
X0466400Y0284400D03*
X0404400Y0284400D03*
X0364400Y0284400D03*
X0302400Y0284400D03*
X0262400Y0284400D03*
X0200400Y0284400D03*
X0160400Y0284400D03*
X0098400Y0284400D03*
X0058400Y0284400D03*
X0058400Y0145400D03*
X0098400Y0145400D03*
X0160400Y0145400D03*
X0200400Y0145400D03*
X0262400Y0145400D03*
X0302400Y0145400D03*
X0364400Y0145400D03*
X0404400Y0145400D03*
X0466400Y0145400D03*
X0506400Y0145400D03*
X0568400Y0145400D03*
X0608400Y0145400D03*
X0670400Y0145400D03*
X0710400Y0145400D03*
X0772400Y0145400D03*
X0812400Y0145400D03*
X0874400Y0145400D03*
X0914400Y0145400D03*
D12*
X0927900Y0118400D03*
X0931900Y0118400D03*
X0935900Y0118400D03*
X0935900Y0108400D03*
X0931900Y0108400D03*
X0927900Y0108400D03*
X0833900Y0108400D03*
X0829900Y0108400D03*
X0825900Y0108400D03*
X0825900Y0118400D03*
X0829900Y0118400D03*
X0833900Y0118400D03*
X0731900Y0118400D03*
X0727900Y0118400D03*
X0723900Y0118400D03*
X0723900Y0108400D03*
X0727900Y0108400D03*
X0731900Y0108400D03*
X0629900Y0108400D03*
X0625900Y0108400D03*
X0621900Y0108400D03*
X0621900Y0118400D03*
X0625900Y0118400D03*
X0629900Y0118400D03*
X0527900Y0118400D03*
X0523900Y0118400D03*
X0519900Y0118400D03*
X0519900Y0108400D03*
X0523900Y0108400D03*
X0527900Y0108400D03*
X0425900Y0108400D03*
X0421900Y0108400D03*
X0417900Y0108400D03*
X0417900Y0118400D03*
X0421900Y0118400D03*
X0425900Y0118400D03*
X0323900Y0118400D03*
X0319900Y0118400D03*
X0315900Y0118400D03*
X0315900Y0108400D03*
X0319900Y0108400D03*
X0323900Y0108400D03*
X0221900Y0108400D03*
X0217900Y0108400D03*
X0213900Y0108400D03*
X0213900Y0118400D03*
X0217900Y0118400D03*
X0221900Y0118400D03*
X0119900Y0118400D03*
X0115900Y0118400D03*
X0111900Y0118400D03*
X0111900Y0108400D03*
X0115900Y0108400D03*
X0119900Y0108400D03*
X0119900Y0247400D03*
X0115900Y0247400D03*
X0111900Y0247400D03*
X0111900Y0257400D03*
X0115900Y0257400D03*
X0119900Y0257400D03*
X0213900Y0257400D03*
X0217900Y0257400D03*
X0221900Y0257400D03*
X0221900Y0247400D03*
X0217900Y0247400D03*
X0213900Y0247400D03*
X0315900Y0247400D03*
X0319900Y0247400D03*
X0323900Y0247400D03*
X0323900Y0257400D03*
X0319900Y0257400D03*
X0315900Y0257400D03*
X0417900Y0257400D03*
X0421900Y0257400D03*
X0425900Y0257400D03*
X0425900Y0247400D03*
X0421900Y0247400D03*
X0417900Y0247400D03*
X0519900Y0247400D03*
X0523900Y0247400D03*
X0527900Y0247400D03*
X0527900Y0257400D03*
X0523900Y0257400D03*
X0519900Y0257400D03*
X0621900Y0257400D03*
X0625900Y0257400D03*
X0629900Y0257400D03*
X0629900Y0247400D03*
X0625900Y0247400D03*
X0621900Y0247400D03*
X0723900Y0247400D03*
X0727900Y0247400D03*
X0731900Y0247400D03*
X0731900Y0257400D03*
X0727900Y0257400D03*
X0723900Y0257400D03*
X0825900Y0257400D03*
X0829900Y0257400D03*
X0833900Y0257400D03*
X0833900Y0247400D03*
X0829900Y0247400D03*
X0825900Y0247400D03*
X0927900Y0247400D03*
X0931900Y0247400D03*
X0935900Y0247400D03*
X0935900Y0257400D03*
X0931900Y0257400D03*
X0927900Y0257400D03*
X0927900Y0386400D03*
X0931900Y0386400D03*
X0935900Y0386400D03*
X0935900Y0396400D03*
X0931900Y0396400D03*
X0927900Y0396400D03*
X0833900Y0396400D03*
X0829900Y0396400D03*
X0825900Y0396400D03*
X0825900Y0386400D03*
X0829900Y0386400D03*
X0833900Y0386400D03*
X0731900Y0386400D03*
X0727900Y0386400D03*
X0723900Y0386400D03*
X0723900Y0396400D03*
X0727900Y0396400D03*
X0731900Y0396400D03*
X0629900Y0396400D03*
X0625900Y0396400D03*
X0621900Y0396400D03*
X0621900Y0386400D03*
X0625900Y0386400D03*
X0629900Y0386400D03*
X0527900Y0386400D03*
X0523900Y0386400D03*
X0519900Y0386400D03*
X0519900Y0396400D03*
X0523900Y0396400D03*
X0527900Y0396400D03*
X0425900Y0396400D03*
X0421900Y0396400D03*
X0417900Y0396400D03*
X0417900Y0386400D03*
X0421900Y0386400D03*
X0425900Y0386400D03*
X0323900Y0386400D03*
X0319900Y0386400D03*
X0315900Y0386400D03*
X0315900Y0396400D03*
X0319900Y0396400D03*
X0323900Y0396400D03*
X0221900Y0396400D03*
X0217900Y0396400D03*
X0213900Y0396400D03*
X0213900Y0386400D03*
X0217900Y0386400D03*
X0221900Y0386400D03*
X0119900Y0386400D03*
X0115900Y0386400D03*
X0111900Y0386400D03*
X0111900Y0396400D03*
X0115900Y0396400D03*
X0119900Y0396400D03*
D13*
X0118650Y0396221D02*
X0117150Y0396221D01*
X0117150Y0395900D02*
X0117150Y0396900D01*
X0118650Y0396900D01*
X0118650Y0395900D01*
X0117150Y0395900D01*
X0117150Y0396719D02*
X0118650Y0396719D01*
X0219150Y0396719D02*
X0220650Y0396719D01*
X0220650Y0396900D02*
X0219150Y0396900D01*
X0219150Y0395900D01*
X0220650Y0395900D01*
X0220650Y0396900D01*
X0220650Y0396221D02*
X0219150Y0396221D01*
X0321150Y0396221D02*
X0322650Y0396221D01*
X0322650Y0395900D02*
X0322650Y0396900D01*
X0321150Y0396900D01*
X0321150Y0395900D01*
X0322650Y0395900D01*
X0322650Y0396719D02*
X0321150Y0396719D01*
X0423150Y0396719D02*
X0424650Y0396719D01*
X0424650Y0396900D02*
X0423150Y0396900D01*
X0423150Y0395900D01*
X0424650Y0395900D01*
X0424650Y0396900D01*
X0424650Y0396221D02*
X0423150Y0396221D01*
X0525150Y0396221D02*
X0526650Y0396221D01*
X0526650Y0395900D02*
X0526650Y0396900D01*
X0525150Y0396900D01*
X0525150Y0395900D01*
X0526650Y0395900D01*
X0526650Y0396719D02*
X0525150Y0396719D01*
X0627150Y0396719D02*
X0628650Y0396719D01*
X0628650Y0396900D02*
X0627150Y0396900D01*
X0627150Y0395900D01*
X0628650Y0395900D01*
X0628650Y0396900D01*
X0628650Y0396221D02*
X0627150Y0396221D01*
X0729150Y0396221D02*
X0730650Y0396221D01*
X0730650Y0395900D02*
X0730650Y0396900D01*
X0729150Y0396900D01*
X0729150Y0395900D01*
X0730650Y0395900D01*
X0730650Y0396719D02*
X0729150Y0396719D01*
X0831150Y0396719D02*
X0832650Y0396719D01*
X0832650Y0396900D02*
X0831150Y0396900D01*
X0831150Y0395900D01*
X0832650Y0395900D01*
X0832650Y0396900D01*
X0832650Y0396221D02*
X0831150Y0396221D01*
X0933150Y0396221D02*
X0934650Y0396221D01*
X0934650Y0395900D02*
X0934650Y0396900D01*
X0933150Y0396900D01*
X0933150Y0395900D01*
X0934650Y0395900D01*
X0934650Y0396719D02*
X0933150Y0396719D01*
X0933150Y0257900D02*
X0933150Y0256900D01*
X0934650Y0256900D01*
X0934650Y0257900D01*
X0933150Y0257900D01*
X0933150Y0257635D02*
X0934650Y0257635D01*
X0934650Y0257136D02*
X0933150Y0257136D01*
X0832650Y0257136D02*
X0831150Y0257136D01*
X0831150Y0256900D02*
X0831150Y0257900D01*
X0832650Y0257900D01*
X0832650Y0256900D01*
X0831150Y0256900D01*
X0831150Y0257635D02*
X0832650Y0257635D01*
X0730650Y0257635D02*
X0729150Y0257635D01*
X0729150Y0257900D02*
X0729150Y0256900D01*
X0730650Y0256900D01*
X0730650Y0257900D01*
X0729150Y0257900D01*
X0729150Y0257136D02*
X0730650Y0257136D01*
X0628650Y0257136D02*
X0627150Y0257136D01*
X0627150Y0256900D02*
X0627150Y0257900D01*
X0628650Y0257900D01*
X0628650Y0256900D01*
X0627150Y0256900D01*
X0627150Y0257635D02*
X0628650Y0257635D01*
X0526650Y0257635D02*
X0525150Y0257635D01*
X0525150Y0257900D02*
X0525150Y0256900D01*
X0526650Y0256900D01*
X0526650Y0257900D01*
X0525150Y0257900D01*
X0525150Y0257136D02*
X0526650Y0257136D01*
X0424650Y0257136D02*
X0423150Y0257136D01*
X0423150Y0256900D02*
X0423150Y0257900D01*
X0424650Y0257900D01*
X0424650Y0256900D01*
X0423150Y0256900D01*
X0423150Y0257635D02*
X0424650Y0257635D01*
X0322650Y0257635D02*
X0321150Y0257635D01*
X0321150Y0257900D02*
X0321150Y0256900D01*
X0322650Y0256900D01*
X0322650Y0257900D01*
X0321150Y0257900D01*
X0321150Y0257136D02*
X0322650Y0257136D01*
X0220650Y0257136D02*
X0219150Y0257136D01*
X0219150Y0256900D02*
X0219150Y0257900D01*
X0220650Y0257900D01*
X0220650Y0256900D01*
X0219150Y0256900D01*
X0219150Y0257635D02*
X0220650Y0257635D01*
X0118650Y0257635D02*
X0117150Y0257635D01*
X0117150Y0257900D02*
X0117150Y0256900D01*
X0118650Y0256900D01*
X0118650Y0257900D01*
X0117150Y0257900D01*
X0117150Y0257136D02*
X0118650Y0257136D01*
X0118650Y0118900D02*
X0117150Y0118900D01*
X0117150Y0117900D01*
X0118650Y0117900D01*
X0118650Y0118900D01*
X0118650Y0118550D02*
X0117150Y0118550D01*
X0117150Y0118052D02*
X0118650Y0118052D01*
X0219150Y0118052D02*
X0220650Y0118052D01*
X0220650Y0117900D02*
X0220650Y0118900D01*
X0219150Y0118900D01*
X0219150Y0117900D01*
X0220650Y0117900D01*
X0220650Y0118550D02*
X0219150Y0118550D01*
X0321150Y0118550D02*
X0322650Y0118550D01*
X0322650Y0118900D02*
X0321150Y0118900D01*
X0321150Y0117900D01*
X0322650Y0117900D01*
X0322650Y0118900D01*
X0322650Y0118052D02*
X0321150Y0118052D01*
X0423150Y0118052D02*
X0424650Y0118052D01*
X0424650Y0117900D02*
X0424650Y0118900D01*
X0423150Y0118900D01*
X0423150Y0117900D01*
X0424650Y0117900D01*
X0424650Y0118550D02*
X0423150Y0118550D01*
X0525150Y0118550D02*
X0526650Y0118550D01*
X0526650Y0118900D02*
X0525150Y0118900D01*
X0525150Y0117900D01*
X0526650Y0117900D01*
X0526650Y0118900D01*
X0526650Y0118052D02*
X0525150Y0118052D01*
X0627150Y0118052D02*
X0628650Y0118052D01*
X0628650Y0117900D02*
X0628650Y0118900D01*
X0627150Y0118900D01*
X0627150Y0117900D01*
X0628650Y0117900D01*
X0628650Y0118550D02*
X0627150Y0118550D01*
X0729150Y0118550D02*
X0730650Y0118550D01*
X0730650Y0118900D02*
X0729150Y0118900D01*
X0729150Y0117900D01*
X0730650Y0117900D01*
X0730650Y0118900D01*
X0730650Y0118052D02*
X0729150Y0118052D01*
X0831150Y0118052D02*
X0832650Y0118052D01*
X0832650Y0117900D02*
X0832650Y0118900D01*
X0831150Y0118900D01*
X0831150Y0117900D01*
X0832650Y0117900D01*
X0832650Y0118550D02*
X0831150Y0118550D01*
X0933150Y0118550D02*
X0934650Y0118550D01*
X0934650Y0118900D02*
X0933150Y0118900D01*
X0933150Y0117900D01*
X0934650Y0117900D01*
X0934650Y0118900D01*
X0934650Y0118052D02*
X0933150Y0118052D01*
D14*
X0924400Y0172400D03*
X0914400Y0172400D03*
X0874400Y0172400D03*
X0864400Y0172400D03*
X0822400Y0172400D03*
X0812400Y0172400D03*
X0772400Y0172400D03*
X0762400Y0172400D03*
X0720400Y0172400D03*
X0710400Y0172400D03*
X0670400Y0172400D03*
X0660400Y0172400D03*
X0618400Y0172400D03*
X0608400Y0172400D03*
X0568400Y0172400D03*
X0558400Y0172400D03*
X0516400Y0172400D03*
X0506400Y0172400D03*
X0466400Y0172400D03*
X0456400Y0172400D03*
X0414400Y0172400D03*
X0404400Y0172400D03*
X0364400Y0172400D03*
X0354400Y0172400D03*
X0312400Y0172400D03*
X0302400Y0172400D03*
X0262400Y0172400D03*
X0252400Y0172400D03*
X0210400Y0172400D03*
X0200400Y0172400D03*
X0160400Y0172400D03*
X0150400Y0172400D03*
X0108400Y0172400D03*
X0098400Y0172400D03*
X0058400Y0172400D03*
X0048400Y0172400D03*
X0048400Y0033400D03*
X0058400Y0033400D03*
X0098400Y0033400D03*
X0108400Y0033400D03*
X0150400Y0033400D03*
X0160400Y0033400D03*
X0200400Y0033400D03*
X0210400Y0033400D03*
X0252400Y0033400D03*
X0262400Y0033400D03*
X0302400Y0033400D03*
X0312400Y0033400D03*
X0354400Y0033400D03*
X0364400Y0033400D03*
X0404400Y0033400D03*
X0414400Y0033400D03*
X0456400Y0033400D03*
X0466400Y0033400D03*
X0506400Y0033400D03*
X0516400Y0033400D03*
X0558400Y0033400D03*
X0568400Y0033400D03*
X0608400Y0033400D03*
X0618400Y0033400D03*
X0660400Y0033400D03*
X0670400Y0033400D03*
X0710400Y0033400D03*
X0720400Y0033400D03*
X0762400Y0033400D03*
X0772400Y0033400D03*
X0812400Y0033400D03*
X0822400Y0033400D03*
X0864400Y0033400D03*
X0874400Y0033400D03*
X0914400Y0033400D03*
X0924400Y0033400D03*
X0924400Y0311400D03*
X0914400Y0311400D03*
X0874400Y0311400D03*
X0864400Y0311400D03*
X0822400Y0311400D03*
X0812400Y0311400D03*
X0772400Y0311400D03*
X0762400Y0311400D03*
X0720400Y0311400D03*
X0710400Y0311400D03*
X0670400Y0311400D03*
X0660400Y0311400D03*
X0618400Y0311400D03*
X0608400Y0311400D03*
X0568400Y0311400D03*
X0558400Y0311400D03*
X0516400Y0311400D03*
X0506400Y0311400D03*
X0466400Y0311400D03*
X0456400Y0311400D03*
X0414400Y0311400D03*
X0404400Y0311400D03*
X0364400Y0311400D03*
X0354400Y0311400D03*
X0312400Y0311400D03*
X0302400Y0311400D03*
X0262400Y0311400D03*
X0252400Y0311400D03*
X0210400Y0311400D03*
X0200400Y0311400D03*
X0160400Y0311400D03*
X0150400Y0311400D03*
X0108400Y0311400D03*
X0098400Y0311400D03*
X0058400Y0311400D03*
X0048400Y0311400D03*
D15*
X0114400Y0326400D03*
X0216400Y0326400D03*
X0318400Y0326400D03*
X0420400Y0326400D03*
X0522400Y0326400D03*
X0624400Y0326400D03*
X0726400Y0326400D03*
X0828400Y0326400D03*
X0930400Y0326400D03*
X0849400Y0262400D03*
X0747400Y0262400D03*
X0645400Y0262400D03*
X0543400Y0262400D03*
X0441400Y0262400D03*
X0339400Y0262400D03*
X0237400Y0262400D03*
X0135400Y0262400D03*
X0033400Y0262400D03*
X0114400Y0187400D03*
X0216400Y0187400D03*
X0318400Y0187400D03*
X0420400Y0187400D03*
X0522400Y0187400D03*
X0624400Y0187400D03*
X0726400Y0187400D03*
X0828400Y0187400D03*
X0930400Y0187400D03*
X0849400Y0123400D03*
X0747400Y0123400D03*
X0645400Y0123400D03*
X0543400Y0123400D03*
X0441400Y0123400D03*
X0339400Y0123400D03*
X0237400Y0123400D03*
X0135400Y0123400D03*
X0033400Y0123400D03*
X0114400Y0048400D03*
X0216400Y0048400D03*
X0318400Y0048400D03*
X0420400Y0048400D03*
X0522400Y0048400D03*
X0624400Y0048400D03*
X0726400Y0048400D03*
X0828400Y0048400D03*
X0930400Y0048400D03*
X0849400Y0401400D03*
X0747400Y0401400D03*
X0645400Y0401400D03*
X0543400Y0401400D03*
X0441400Y0401400D03*
X0339400Y0401400D03*
X0237400Y0401400D03*
X0135400Y0401400D03*
X0033400Y0401400D03*
D16*
X0058400Y0346400D03*
X0068400Y0346400D03*
X0160400Y0346400D03*
X0170400Y0346400D03*
X0262400Y0346400D03*
X0272400Y0346400D03*
X0364400Y0346400D03*
X0374400Y0346400D03*
X0466400Y0346400D03*
X0476400Y0346400D03*
X0568400Y0346400D03*
X0578400Y0346400D03*
X0670400Y0346400D03*
X0680400Y0346400D03*
X0772400Y0346400D03*
X0782400Y0346400D03*
X0874400Y0346400D03*
X0884400Y0346400D03*
X0884400Y0207400D03*
X0874400Y0207400D03*
X0782400Y0207400D03*
X0772400Y0207400D03*
X0680400Y0207400D03*
X0670400Y0207400D03*
X0578400Y0207400D03*
X0568400Y0207400D03*
X0476400Y0207400D03*
X0466400Y0207400D03*
X0374400Y0207400D03*
X0364400Y0207400D03*
X0272400Y0207400D03*
X0262400Y0207400D03*
X0170400Y0207400D03*
X0160400Y0207400D03*
X0068400Y0207400D03*
X0058400Y0207400D03*
X0058400Y0068400D03*
X0068400Y0068400D03*
X0160400Y0068400D03*
X0170400Y0068400D03*
X0262400Y0068400D03*
X0272400Y0068400D03*
X0364400Y0068400D03*
X0374400Y0068400D03*
X0466400Y0068400D03*
X0476400Y0068400D03*
X0568400Y0068400D03*
X0578400Y0068400D03*
X0670400Y0068400D03*
X0680400Y0068400D03*
X0772400Y0068400D03*
X0782400Y0068400D03*
X0874400Y0068400D03*
X0884400Y0068400D03*
M02*
