%
M48
M72
T01C0.0150
T02C0.0200
T03C0.0276
T04C0.0354
T05C0.0400
%
T01
X4040Y3340
X3140Y4340
X4390Y5790
X3840Y6240
X5840Y6040
X6840Y6340
X7990Y6540
X8340Y6840
X9340Y7540
X9590Y6740
X10840Y6840
X9840Y5640
X10340Y5240
X8740Y5390
X8040Y5490
X6840Y4840
X5840Y7340
X6340Y7490
X3340Y9840
X7040Y11440
X8340Y11490
X9340Y10940
X10340Y10690
X10640Y9840
X11190Y9840
X11940Y9840
X12340Y10040
X13540Y9840
X10390Y11690
X11190Y12390
X12040Y12490
X17240Y11440
X18540Y11490
X19540Y10940
X20540Y10690
X20840Y9840
X21390Y9840
X22140Y9840
X22540Y10040
X23740Y9840
X20590Y11690
X21390Y12390
X22240Y12490
X27440Y11440
X28740Y11490
X29740Y10940
X30740Y10690
X31040Y9840
X31590Y9840
X32340Y9840
X32740Y10040
X33940Y9840
X30790Y11690
X31590Y12390
X32440Y12490
X37640Y11440
X38940Y11490
X39940Y10940
X40940Y10690
X41240Y9840
X41790Y9840
X42540Y9840
X42940Y10040
X44140Y9840
X40990Y11690
X41790Y12390
X42640Y12490
X47840Y11440
X49140Y11490
X50140Y10940
X51140Y10690
X51440Y9840
X51990Y9840
X52740Y9840
X53140Y10040
X54340Y9840
X51190Y11690
X51990Y12390
X52840Y12490
X58040Y11440
X59340Y11490
X60340Y10940
X61340Y10690
X61640Y9840
X62190Y9840
X62940Y9840
X63340Y10040
X64540Y9840
X61390Y11690
X62190Y12390
X63040Y12490
X68240Y11440
X69540Y11490
X70540Y10940
X71540Y10690
X71840Y9840
X72390Y9840
X73140Y9840
X73540Y10040
X74740Y9840
X71590Y11690
X72390Y12390
X73240Y12490
X78440Y11440
X79740Y11490
X80740Y10940
X81740Y10690
X82040Y9840
X82590Y9840
X83340Y9840
X83740Y10040
X84940Y9840
X81790Y11690
X82590Y12390
X83440Y12490
X88640Y11440
X89940Y11490
X90940Y10940
X91940Y10690
X92240Y9840
X92790Y9840
X93540Y9840
X93940Y10040
X91990Y11690
X92790Y12390
X93640Y12490
X85640Y17240
X84740Y18240
X83240Y18240
X81740Y19140
X81240Y19540
X80140Y19290
X79440Y19390
X78240Y20240
X77240Y19940
X75790Y19690
X75240Y20140
X77240Y21240
X77740Y21390
X79390Y20440
X79740Y20740
X80740Y21440
X80990Y20640
X82240Y20740
X85440Y20140
X85990Y19690
X87440Y19940
X88440Y20240
X89590Y20440
X89940Y20740
X91190Y20640
X90940Y21440
X92440Y20740
X91440Y19540
X91940Y19140
X90340Y19290
X89640Y19390
X88440Y18740
X87440Y21240
X87940Y21390
X84940Y23740
X83740Y23940
X83340Y23740
X82590Y23740
X82040Y23740
X81740Y24590
X81790Y25590
X82590Y26290
X83440Y26390
X80740Y24840
X79740Y25390
X78440Y25340
X74740Y23740
X73540Y23940
X73140Y23740
X72390Y23740
X71840Y23740
X71540Y24590
X70540Y24840
X69540Y25390
X68240Y25340
X71590Y25590
X72390Y26290
X73240Y26390
X64540Y23740
X63340Y23940
X62940Y23740
X62190Y23740
X61640Y23740
X61340Y24590
X60340Y24840
X59340Y25390
X58040Y25340
X61390Y25590
X62190Y26290
X63040Y26390
X54340Y23740
X53140Y23940
X52740Y23740
X51990Y23740
X51440Y23740
X51140Y24590
X50140Y24840
X49140Y25390
X47840Y25340
X51190Y25590
X51990Y26290
X52840Y26390
X44140Y23740
X42940Y23940
X42540Y23740
X41790Y23740
X41240Y23740
X40940Y24590
X39940Y24840
X38940Y25390
X37640Y25340
X40990Y25590
X41790Y26290
X42640Y26390
X33940Y23740
X32740Y23940
X32340Y23740
X31590Y23740
X31040Y23740
X30740Y24590
X29740Y24840
X28740Y25390
X27440Y25340
X30790Y25590
X31590Y26290
X32440Y26390
X23740Y23740
X22540Y23940
X22140Y23740
X21390Y23740
X20840Y23740
X20540Y24590
X19540Y24840
X18540Y25390
X17240Y25340
X20590Y25590
X21390Y26290
X22240Y26390
X13540Y23740
X12340Y23940
X11940Y23740
X11190Y23740
X10640Y23740
X10340Y24590
X9340Y24840
X8340Y25390
X7040Y25340
X10390Y25590
X11190Y26290
X12040Y26390
X3340Y23740
X5840Y21240
X6340Y21390
X7990Y20440
X8340Y20740
X9590Y20640
X9340Y21440
X10840Y20740
X9840Y19540
X10340Y19140
X8740Y19290
X8040Y19390
X6840Y20240
X5840Y19940
X4390Y19690
X3840Y20140
X3140Y18240
X4040Y17240
X6840Y18740
X11840Y18240
X13340Y18240
X14240Y17240
X17040Y18740
X18240Y19390
X18940Y19290
X20040Y19540
X20540Y19140
X22040Y18240
X23540Y18240
X24440Y17240
X27240Y18740
X29140Y19290
X28440Y19390
X27240Y20240
X28390Y20440
X28740Y20740
X29990Y20640
X29740Y21440
X31240Y20740
X30240Y19540
X30740Y19140
X32240Y18240
X33740Y18240
X34640Y17240
X37440Y18740
X38640Y19390
X39340Y19290
X40440Y19540
X40940Y19140
X42440Y18240
X43940Y18240
X44840Y17240
X47640Y18740
X48840Y19390
X49540Y19290
X50640Y19540
X51140Y19140
X52640Y18240
X54140Y18240
X55040Y17240
X57840Y18740
X59040Y19390
X59740Y19290
X60840Y19540
X61340Y19140
X62840Y18240
X64340Y18240
X65240Y17240
X68040Y18740
X69240Y19390
X69940Y19290
X71040Y19540
X71540Y19140
X73040Y18240
X74540Y18240
X75440Y17240
X78240Y18740
X72040Y20740
X70790Y20640
X69540Y20740
X69190Y20440
X68040Y20240
X67040Y19940
X65590Y19690
X65040Y20140
X67040Y21240
X67540Y21390
X70540Y21440
X61840Y20740
X60590Y20640
X60340Y21440
X59340Y20740
X58990Y20440
X57840Y20240
X56840Y19940
X55390Y19690
X54840Y20140
X56840Y21240
X57340Y21390
X51640Y20740
X50390Y20640
X49140Y20740
X48790Y20440
X47640Y20240
X46640Y19940
X45190Y19690
X44640Y20140
X46640Y21240
X47140Y21390
X50140Y21440
X41440Y20740
X40190Y20640
X38940Y20740
X38590Y20440
X37440Y20240
X36440Y19940
X34990Y19690
X34440Y20140
X36440Y21240
X36940Y21390
X39940Y21440
X26740Y21390
X26240Y21240
X26240Y19940
X24790Y19690
X24240Y20140
X21040Y20740
X19790Y20640
X18540Y20740
X18190Y20440
X17040Y20240
X16040Y19940
X14590Y19690
X14040Y20140
X16040Y21240
X16540Y21390
X19540Y21440
X24440Y31140
X23540Y32140
X22040Y32140
X20540Y33040
X20040Y33440
X18940Y33190
X18240Y33290
X17040Y32640
X16040Y33840
X17040Y34140
X18190Y34340
X18540Y34640
X19540Y35340
X19790Y34540
X21040Y34640
X24240Y34040
X24790Y33590
X26240Y33840
X27240Y34140
X28390Y34340
X28740Y34640
X29740Y35340
X29990Y34540
X31240Y34640
X30240Y33440
X30740Y33040
X29140Y33190
X28440Y33290
X27240Y32640
X26240Y35140
X26740Y35290
X23740Y37640
X22540Y37840
X22140Y37640
X21390Y37640
X20840Y37640
X20540Y38490
X19540Y38740
X18540Y39290
X17240Y39240
X20590Y39490
X21390Y40190
X22240Y40290
X27440Y39240
X28740Y39290
X29740Y38740
X30740Y38490
X31040Y37640
X31590Y37640
X32340Y37640
X32740Y37840
X33940Y37640
X30790Y39490
X31590Y40190
X32440Y40290
X37640Y39240
X38940Y39290
X39940Y38740
X40940Y38490
X41240Y37640
X41790Y37640
X42540Y37640
X42940Y37840
X44140Y37640
X40990Y39490
X41790Y40190
X42640Y40290
X47840Y39240
X49140Y39290
X50140Y38740
X51140Y38490
X51440Y37640
X51990Y37640
X52740Y37640
X53140Y37840
X54340Y37640
X51190Y39490
X51990Y40190
X52840Y40290
X58040Y39240
X59340Y39290
X60340Y38740
X61340Y38490
X61640Y37640
X62190Y37640
X62940Y37640
X63340Y37840
X64540Y37640
X61390Y39490
X62190Y40190
X63040Y40290
X68240Y39240
X69540Y39290
X70540Y38740
X71540Y38490
X71840Y37640
X72390Y37640
X73140Y37640
X73540Y37840
X74740Y37640
X71590Y39490
X72390Y40190
X73240Y40290
X78440Y39240
X79740Y39290
X80740Y38740
X81740Y38490
X82040Y37640
X82590Y37640
X83340Y37640
X83740Y37840
X84940Y37640
X81790Y39490
X82590Y40190
X83440Y40290
X88640Y39240
X89940Y39290
X90940Y38740
X91940Y38490
X92240Y37640
X92790Y37640
X93540Y37640
X93940Y37840
X91990Y39490
X92790Y40190
X93640Y40290
X90940Y35340
X91190Y34540
X89940Y34640
X89590Y34340
X89640Y33290
X90340Y33190
X91440Y33440
X91940Y33040
X93440Y32140
X92440Y34640
X88440Y34140
X87440Y33840
X85990Y33590
X85440Y34040
X87440Y35140
X87940Y35290
X88440Y32640
X85640Y31140
X84740Y32140
X83240Y32140
X81740Y33040
X81240Y33440
X80140Y33190
X79440Y33290
X78240Y32640
X77240Y33840
X78240Y34140
X79390Y34340
X79740Y34640
X80740Y35340
X80990Y34540
X82240Y34640
X77740Y35290
X77240Y35140
X75240Y34040
X75790Y33590
X74540Y32140
X73040Y32140
X71540Y33040
X71040Y33440
X69940Y33190
X69240Y33290
X69190Y34340
X69540Y34640
X70540Y35340
X70790Y34540
X72040Y34640
X68040Y34140
X67040Y33840
X65590Y33590
X65040Y34040
X67040Y35140
X67540Y35290
X68040Y32640
X65240Y31140
X64340Y32140
X62840Y32140
X61340Y33040
X60840Y33440
X59740Y33190
X59040Y33290
X57840Y32640
X56840Y33840
X57840Y34140
X58990Y34340
X59340Y34640
X60340Y35340
X60590Y34540
X61840Y34640
X57340Y35290
X56840Y35140
X54840Y34040
X55390Y33590
X54140Y32140
X52640Y32140
X51140Y33040
X50640Y33440
X49540Y33190
X48840Y33290
X48790Y34340
X49140Y34640
X50140Y35340
X50390Y34540
X51640Y34640
X47640Y34140
X46640Y33840
X45190Y33590
X44640Y34040
X46640Y35140
X47140Y35290
X47640Y32640
X44840Y31140
X43940Y32140
X42440Y32140
X40940Y33040
X40440Y33440
X39340Y33190
X38640Y33290
X37440Y32640
X36440Y33840
X37440Y34140
X38590Y34340
X38940Y34640
X39940Y35340
X40190Y34540
X41440Y34640
X36940Y35290
X36440Y35140
X34440Y34040
X34990Y33590
X33740Y32140
X32240Y32140
X34640Y31140
X16540Y35290
X16040Y35140
X14040Y34040
X14590Y33590
X13340Y32140
X11840Y32140
X10340Y33040
X9840Y33440
X8740Y33190
X8040Y33290
X6840Y32640
X5840Y33840
X6840Y34140
X7990Y34340
X8340Y34640
X9340Y35340
X9590Y34540
X10840Y34640
X6340Y35290
X5840Y35140
X4390Y33590
X3840Y34040
X3140Y32140
X4040Y31140
X14240Y31140
X13540Y37640
X12340Y37840
X11940Y37640
X11190Y37640
X10640Y37640
X10340Y38490
X9340Y38740
X8340Y39290
X7040Y39240
X10390Y39490
X11190Y40190
X12040Y40290
X3340Y37640
X55040Y31140
X75440Y31140
X88640Y25340
X89940Y25390
X90940Y24840
X91940Y24590
X92240Y23740
X92790Y23740
X93540Y23740
X93940Y23940
X91990Y25590
X92790Y26290
X93640Y26390
X93440Y18240
X90940Y7540
X91190Y6740
X89940Y6840
X89590Y6540
X89640Y5490
X90340Y5390
X91440Y5640
X91940Y5240
X93440Y4340
X92440Y6840
X88440Y6340
X87440Y6040
X85990Y5790
X85440Y6240
X87440Y7340
X87940Y7490
X88440Y4840
X85640Y3340
X84740Y4340
X83240Y4340
X81740Y5240
X81240Y5640
X80140Y5390
X79440Y5490
X78240Y4840
X77240Y6040
X78240Y6340
X79390Y6540
X79740Y6840
X80740Y7540
X80990Y6740
X82240Y6840
X77740Y7490
X77240Y7340
X75240Y6240
X75790Y5790
X74540Y4340
X73040Y4340
X71540Y5240
X71040Y5640
X69940Y5390
X69240Y5490
X69190Y6540
X69540Y6840
X70540Y7540
X70790Y6740
X72040Y6840
X68040Y6340
X67040Y6040
X65590Y5790
X65040Y6240
X67040Y7340
X67540Y7490
X68040Y4840
X65240Y3340
X64340Y4340
X62840Y4340
X61340Y5240
X60840Y5640
X59740Y5390
X59040Y5490
X57840Y4840
X56840Y6040
X57840Y6340
X58990Y6540
X59340Y6840
X60340Y7540
X60590Y6740
X61840Y6840
X57340Y7490
X56840Y7340
X54840Y6240
X55390Y5790
X54140Y4340
X52640Y4340
X51140Y5240
X50640Y5640
X49540Y5390
X48840Y5490
X48790Y6540
X49140Y6840
X50140Y7540
X50390Y6740
X51640Y6840
X47640Y6340
X46640Y6040
X45190Y5790
X44640Y6240
X46640Y7340
X47140Y7490
X47640Y4840
X44840Y3340
X43940Y4340
X42440Y4340
X40940Y5240
X40440Y5640
X39340Y5390
X38640Y5490
X37440Y4840
X36440Y6040
X37440Y6340
X38590Y6540
X38940Y6840
X39940Y7540
X40190Y6740
X41440Y6840
X36940Y7490
X36440Y7340
X34440Y6240
X34990Y5790
X33740Y4340
X32240Y4340
X30740Y5240
X30240Y5640
X29140Y5390
X28440Y5490
X27240Y4840
X26240Y6040
X24790Y5790
X24240Y6240
X26240Y7340
X26740Y7490
X27240Y6340
X28390Y6540
X28740Y6840
X29740Y7540
X29990Y6740
X31240Y6840
X34640Y3340
X24440Y3340
X23540Y4340
X22040Y4340
X20540Y5240
X20040Y5640
X18940Y5390
X18240Y5490
X17040Y4840
X16040Y6040
X17040Y6340
X18190Y6540
X18540Y6840
X19540Y7540
X19790Y6740
X21040Y6840
X16540Y7490
X16040Y7340
X14040Y6240
X14590Y5790
X13340Y4340
X11840Y4340
X14240Y3340
X55040Y3340
X75440Y3340
T02
X71540Y4340
X61340Y4340
X51140Y4340
X40940Y4340
X30740Y4340
X20540Y4340
X10340Y4340
X10340Y18240
X20540Y18240
X30740Y18240
X40940Y18240
X51140Y18240
X61340Y18240
X71540Y18240
X81740Y18240
X91940Y18240
X91940Y4340
X81740Y4340
X81740Y32140
X91940Y32140
X71540Y32140
X61340Y32140
X51140Y32140
X40940Y32140
X30740Y32140
X20540Y32140
X10340Y32140
T03
X9840Y28440
X5840Y28440
X16040Y28440
X20040Y28440
X26240Y28440
X30240Y28440
X36440Y28440
X40440Y28440
X46640Y28440
X50640Y28440
X56840Y28440
X60840Y28440
X67040Y28440
X71040Y28440
X77240Y28440
X81240Y28440
X87440Y28440
X91440Y28440
X91440Y42340
X87440Y42340
X81240Y42340
X77240Y42340
X71040Y42340
X67040Y42340
X60840Y42340
X56840Y42340
X50640Y42340
X46640Y42340
X40440Y42340
X36440Y42340
X30240Y42340
X26240Y42340
X20040Y42340
X16040Y42340
X9840Y42340
X5840Y42340
X5840Y14540
X9840Y14540
X16040Y14540
X20040Y14540
X26240Y14540
X30240Y14540
X36440Y14540
X40440Y14540
X46640Y14540
X50640Y14540
X56840Y14540
X60840Y14540
X67040Y14540
X71040Y14540
X77240Y14540
X81240Y14540
X87440Y14540
X91440Y14540
T04
X3340Y3340
X12340Y3340
X13540Y3340
X22540Y3340
X23740Y3340
X32740Y3340
X33940Y3340
X42940Y3340
X44140Y3340
X53140Y3340
X54340Y3340
X63340Y3340
X64540Y3340
X73540Y3340
X74740Y3340
X83740Y3340
X84940Y3340
X93940Y3340
X91440Y10840
X87440Y10840
X81240Y10840
X77240Y10840
X71040Y10840
X67040Y10840
X60840Y10840
X56840Y10840
X50640Y10840
X46640Y10840
X40440Y10840
X36440Y10840
X30240Y10840
X26240Y10840
X20040Y10840
X16040Y10840
X9840Y10840
X5840Y10840
X3340Y17240
X12340Y17240
X13540Y17240
X22540Y17240
X23740Y17240
X32740Y17240
X33940Y17240
X42940Y17240
X44140Y17240
X53140Y17240
X54340Y17240
X63340Y17240
X64540Y17240
X73540Y17240
X74740Y17240
X83740Y17240
X84940Y17240
X93940Y17240
X91440Y24740
X87440Y24740
X81240Y24740
X77240Y24740
X71040Y24740
X67040Y24740
X60840Y24740
X56840Y24740
X50640Y24740
X46640Y24740
X40440Y24740
X36440Y24740
X30240Y24740
X26240Y24740
X20040Y24740
X16040Y24740
X9840Y24740
X5840Y24740
X3340Y31140
X12340Y31140
X13540Y31140
X22540Y31140
X23740Y31140
X32740Y31140
X33940Y31140
X42940Y31140
X44140Y31140
X53140Y31140
X54340Y31140
X63340Y31140
X64540Y31140
X73540Y31140
X74740Y31140
X83740Y31140
X84940Y31140
X93940Y31140
X91440Y38640
X87440Y38640
X81240Y38640
X77240Y38640
X71040Y38640
X67040Y38640
X60840Y38640
X56840Y38640
X50640Y38640
X46640Y38640
X40440Y38640
X36440Y38640
X30240Y38640
X26240Y38640
X20040Y38640
X16040Y38640
X9840Y38640
X5840Y38640
T05
X5840Y31140
X4840Y31140
X9840Y31140
X10840Y31140
X15040Y31140
X16040Y31140
X20040Y31140
X21040Y31140
X25240Y31140
X26240Y31140
X30240Y31140
X31240Y31140
X35440Y31140
X36440Y31140
X40440Y31140
X41440Y31140
X45640Y31140
X46640Y31140
X50640Y31140
X51640Y31140
X55840Y31140
X56840Y31140
X60840Y31140
X61840Y31140
X66040Y31140
X67040Y31140
X71040Y31140
X72040Y31140
X76240Y31140
X77240Y31140
X81240Y31140
X82240Y31140
X86440Y31140
X87440Y31140
X91440Y31140
X92440Y31140
X92440Y17240
X91440Y17240
X87440Y17240
X86440Y17240
X82240Y17240
X81240Y17240
X77240Y17240
X76240Y17240
X72040Y17240
X71040Y17240
X67040Y17240
X66040Y17240
X61840Y17240
X60840Y17240
X56840Y17240
X55840Y17240
X51640Y17240
X50640Y17240
X46640Y17240
X45640Y17240
X41440Y17240
X40440Y17240
X36440Y17240
X35440Y17240
X31240Y17240
X30240Y17240
X26240Y17240
X25240Y17240
X21040Y17240
X20040Y17240
X16040Y17240
X15040Y17240
X10840Y17240
X9840Y17240
X5840Y17240
X4840Y17240
X4840Y3340
X5840Y3340
X9840Y3340
X10840Y3340
X15040Y3340
X16040Y3340
X20040Y3340
X21040Y3340
X25240Y3340
X26240Y3340
X30240Y3340
X31240Y3340
X35440Y3340
X36440Y3340
X40440Y3340
X41440Y3340
X45640Y3340
X46640Y3340
X50640Y3340
X51640Y3340
X55840Y3340
X56840Y3340
X60840Y3340
X61840Y3340
X66040Y3340
X67040Y3340
X71040Y3340
X72040Y3340
X76240Y3340
X77240Y3340
X81240Y3340
X82240Y3340
X86440Y3340
X87440Y3340
X91440Y3340
X92440Y3340
M30
